<?xml version="1.0" encoding="UTF-8" standalone="no"?>
<!DOCTYPE svg PUBLIC "-//W3C//DTD SVG 1.1//EN" "http://www.w3.org/Graphics/SVG/1.1/DTD/svg11.dtd">
<svg width="100%" height="100%" viewBox="0 0 3300 900" version="1.1" xmlns="http://www.w3.org/2000/svg" xmlns:xlink="http://www.w3.org/1999/xlink" xml:space="preserve" xmlns:serif="http://www.serif.com/" style="fill-rule:evenodd;clip-rule:evenodd;stroke-linejoin:round;stroke-miterlimit:2;">
    <g transform="matrix(0.767008,0,0,0.767008,219.86,22.1282)">
        <g transform="matrix(0.685771,0,0,0.685771,-73.0751,384.54)">
            <circle cx="431.074" cy="595.041" r="145.175" style="fill:white;"/>
        </g>
        <g transform="matrix(0.685771,0,0,0.685771,230.653,396.173)">
            <circle cx="431.074" cy="595.041" r="145.175" style="fill:white;"/>
        </g>
        <g transform="matrix(0.685771,0,0,0.685771,370.505,396.173)">
            <circle cx="431.074" cy="595.041" r="145.175" style="fill:white;"/>
        </g>
        <g transform="matrix(0.685771,0,0,0.685771,1.52731,265.245)">
            <circle cx="431.074" cy="595.041" r="145.175" style="fill:white;"/>
        </g>
        <g transform="matrix(0.685771,0,0,0.685771,144.911,290.249)">
            <circle cx="431.074" cy="595.041" r="145.175" style="fill:white;"/>
        </g>
        <g transform="matrix(0.685771,0,0,0.685771,305.121,265.245)">
            <circle cx="431.074" cy="595.041" r="145.175" style="fill:white;"/>
        </g>
        <g transform="matrix(0.685771,0,0,0.685771,56.9268,384.54)">
            <circle cx="431.074" cy="595.041" r="145.175" style="fill:white;"/>
        </g>
    </g>
    <g transform="matrix(0.494867,0,0,0.494867,91.4731,427.248)">
        <g transform="matrix(1,0,0,1,1427.04,-79.8979)">
            <circle cx="431.074" cy="595.041" r="145.175" style="fill:white;"/>
        </g>
        <g transform="matrix(1,0,0,1,1638.99,-94.6859)">
            <circle cx="431.074" cy="595.041" r="145.175" style="fill:white;"/>
        </g>
        <g transform="matrix(1,0,0,1,1842.93,-123.467)">
            <circle cx="431.074" cy="595.041" r="145.175" style="fill:white;"/>
        </g>
        <g transform="matrix(1,0,0,1,1281.87,86.0171)">
            <circle cx="431.074" cy="595.041" r="145.175" style="fill:white;"/>
        </g>
        <g transform="matrix(1,0,0,1,1495.66,86.0171)">
            <circle cx="431.074" cy="595.041" r="145.175" style="fill:white;"/>
        </g>
        <g transform="matrix(1,0,0,1,1711.56,86.0171)">
            <circle cx="431.074" cy="595.041" r="145.175" style="fill:white;"/>
        </g>
        <g transform="matrix(1,0,0,1,1951.64,86.0171)">
            <circle cx="431.074" cy="595.041" r="145.175" style="fill:white;"/>
        </g>
    </g>
    <circle cx="1942.66" cy="364.041" r="85.959" style="fill:white;"/>
    <circle cx="1942.66" cy="364.041" r="85.959" style="fill:white;"/>
    <circle cx="2052.92" cy="293.593" r="93.175" style="fill:white;"/>
    <circle cx="2064.39" cy="417.8" r="81.699" style="fill:white;"/>
    <circle cx="2197.06" cy="394.659" r="87.31" style="fill:white;"/>
    <circle cx="2310.24" cy="364.041" r="85.959" style="fill:white;"/>
    <circle cx="2395.34" cy="301.672" r="85.097" style="fill:white;"/>
    <circle cx="2234.97" cy="342.965" r="88.879" style="fill:white;"/>
    <circle cx="1380.69" cy="214.45" r="92.9" style="fill:white;"/>
    <circle cx="1236.28" cy="211.611" r="90.061" style="fill:white;"/>
    <circle cx="1056.13" cy="94.836" r="60.689" style="fill:white;"/>
    <circle cx="1151.56" cy="179.561" r="84.725" style="fill:white;"/>
    <circle cx="1279.79" cy="134.247" r="77.364" style="fill:white;"/>
    <circle cx="1065.4" cy="204.207" r="69.96" style="fill:white;"/>
    <circle cx="42.396" cy="256.942" r="77.38" style="fill:white;"/>
    <g transform="matrix(1,0,0,1,92.8063,0)">
        <circle cx="26.971" cy="340.099" r="75.812" style="fill:white;"/>
    </g>
    <circle cx="43.311" cy="398.366" r="103.973" style="fill:white;"/>
    <circle cx="181.681" cy="291.754" r="80.143" style="fill:white;"/>
    <circle cx="2314.93" cy="734.255" r="74.987" style="fill:white;"/>
    <circle cx="2485.32" cy="761.388" r="82.345" style="fill:white;"/>
    <circle cx="2411.13" cy="708.988" r="74.191" style="fill:white;"/>
    <circle cx="2598.88" cy="734.255" r="74.987" style="fill:white;"/>
    <circle cx="2240.08" cy="721.223" r="61.955" style="fill:white;"/>
    <circle cx="2328.89" cy="660.229" r="61.032" style="fill:white;"/>
    <circle cx="2531.22" cy="666.856" r="67.659" style="fill:white;"/>
    <circle cx="2845.89" cy="313.267" r="73.217" style="fill:white;"/>
    <circle cx="2933.78" cy="375.247" r="74.753" style="fill:white;"/>
    <circle cx="3022.14" cy="348.325" r="88.358" style="fill:white;"/>
    <circle cx="3133.04" cy="288.221" r="98.263" style="fill:white;"/>
    <circle cx="2979.85" cy="269.141" r="79.183" style="fill:white;"/>
    <circle cx="3284.29" cy="699.099" r="80.952" style="fill:white;"/>
    <circle cx="3327.03" cy="610.017" r="57.218" style="fill:white;"/>
    <circle cx="1489.01" cy="602.666" r="75.102" style="fill:white;"/>
    <circle cx="1579.33" cy="520.672" r="70.672" style="fill:white;"/>
    <circle cx="1614.28" cy="615.283" r="62.485" style="fill:white;"/>
</svg>
