<?xml version="1.0" encoding="UTF-8" standalone="no"?>
<!DOCTYPE svg PUBLIC "-//W3C//DTD SVG 1.1//EN" "http://www.w3.org/Graphics/SVG/1.1/DTD/svg11.dtd">
<svg width="100%" height="100%" viewBox="0 0 3300 900" version="1.1" xmlns="http://www.w3.org/2000/svg" xmlns:xlink="http://www.w3.org/1999/xlink" xml:space="preserve" xmlns:serif="http://www.serif.com/" style="fill-rule:evenodd;clip-rule:evenodd;stroke-linecap:round;stroke-linejoin:round;stroke-miterlimit:1.5;">
    <g transform="matrix(0.767008,0,0,0.767008,-249.45,-25.5085)">
        <g transform="matrix(0.685771,0,0,0.685771,230.653,396.173)">
            <circle cx="431.074" cy="595.041" r="145.175" style="fill:white;"/>
        </g>
        <g transform="matrix(0.685771,0,0,0.685771,370.505,396.173)">
            <circle cx="431.074" cy="595.041" r="145.175" style="fill:white;"/>
        </g>
        <g transform="matrix(0.685771,0,0,0.685771,1.52731,265.245)">
            <circle cx="431.074" cy="595.041" r="145.175" style="fill:white;"/>
        </g>
        <g transform="matrix(0.685771,0,0,0.685771,144.911,290.249)">
            <circle cx="431.074" cy="595.041" r="145.175" style="fill:white;"/>
        </g>
        <g transform="matrix(0.685771,0,0,0.685771,305.121,265.245)">
            <circle cx="431.074" cy="595.041" r="145.175" style="fill:white;"/>
        </g>
        <g transform="matrix(0.685771,0,0,0.685771,56.9268,384.54)">
            <circle cx="431.074" cy="595.041" r="145.175" style="fill:white;"/>
        </g>
    </g>
    <g transform="matrix(1,0,0,1,587.395,283.333)">
        <circle cx="1942.66" cy="364.041" r="85.959" style="fill:white;"/>
    </g>
    <g transform="matrix(1,0,0,1,587.395,283.333)">
        <circle cx="1942.66" cy="364.041" r="85.959" style="fill:white;"/>
    </g>
    <g transform="matrix(1,0,0,1,587.395,283.333)">
        <circle cx="2052.92" cy="293.593" r="93.175" style="fill:white;"/>
    </g>
    <g transform="matrix(1,0,0,1,587.395,283.333)">
        <circle cx="2064.39" cy="417.8" r="81.699" style="fill:white;"/>
    </g>
    <g transform="matrix(1,0,0,1,587.395,283.333)">
        <circle cx="2197.06" cy="394.659" r="87.31" style="fill:white;"/>
    </g>
    <g transform="matrix(1,0,0,1,587.395,283.333)">
        <circle cx="2310.24" cy="364.041" r="85.959" style="fill:white;"/>
    </g>
    <g transform="matrix(1,0,0,1,356.651,289.01)">
        <circle cx="2395.34" cy="301.672" r="85.097" style="fill:white;"/>
    </g>
    <g transform="matrix(1,0,0,1,619.527,233.961)">
        <circle cx="2234.97" cy="342.965" r="88.879" style="fill:white;"/>
    </g>
    <g transform="matrix(1,0,0,1,2120.37,112.891)">
        <circle cx="1236.28" cy="211.611" r="90.061" style="fill:white;"/>
    </g>
    <g transform="matrix(1,0,0,1,2120.37,112.891)">
        <circle cx="1056.13" cy="94.836" r="60.689" style="fill:white;"/>
    </g>
    <g transform="matrix(1,0,0,1,2120.37,112.891)">
        <circle cx="1151.56" cy="179.561" r="84.725" style="fill:white;"/>
    </g>
    <g transform="matrix(1,0,0,1,2120.37,112.891)">
        <circle cx="1065.4" cy="204.207" r="69.96" style="fill:white;"/>
    </g>
    <g transform="matrix(1,0,0,1,-2401.1,-112.252)">
        <circle cx="2845.89" cy="313.267" r="73.217" style="fill:white;"/>
    </g>
    <g transform="matrix(1,0,0,1,-2401.1,-112.252)">
        <circle cx="2933.78" cy="375.247" r="74.753" style="fill:white;"/>
    </g>
    <g transform="matrix(1,0,0,1,-2401.1,-112.252)">
        <circle cx="3022.14" cy="348.325" r="88.358" style="fill:white;"/>
    </g>
    <g transform="matrix(1,0,0,1,-2401.1,-112.252)">
        <circle cx="3133.04" cy="288.221" r="98.263" style="fill:white;"/>
    </g>
    <g transform="matrix(1,0,0,1,-2401.1,-112.252)">
        <circle cx="2979.85" cy="269.141" r="79.183" style="fill:white;"/>
    </g>
    <g transform="matrix(0.787653,0,0,0.787653,266.107,153.24)">
        <path d="M1399.57,306.561C1341.76,292.484 1234.89,349.767 1224.5,381.34C1211.36,421.269 1239.72,470.042 1282.74,465.102C1331.36,459.519 1426.72,413.497 1438.35,383.189C1446.4,362.21 1448.63,318.508 1399.57,306.561Z" style="fill:rgb(255,241,180);stroke:rgb(128,128,128);stroke-opacity:0;stroke-width:1.27px;"/>
        <path d="M1399.57,306.561C1342.04,291.388 1234.89,349.767 1224.5,381.34C1211.36,421.269 1237.79,461.019 1280.81,456.079C1329.43,450.496 1425.51,401.721 1434.36,370.489C1440.3,349.55 1445.11,318.573 1399.57,306.561Z" style="fill:rgb(191,109,65);stroke:rgb(128,128,128);stroke-opacity:0;stroke-width:1.27px;"/>
        <path d="M1241.1,407.669C1235.69,414.486 1227.81,423.285 1224.88,428.119C1223.38,430.588 1221.66,432.382 1221.26,435.842C1220.87,439.236 1222.43,445.873 1223.12,449.176C1223.81,452.48 1224.6,454.569 1227.69,456.496C1230.28,458.114 1234.42,460.612 1236.5,458.994C1238.59,457.377 1239.75,451.017 1240.2,446.791C1240.73,441.778 1238.33,434.719 1239.69,428.916C1241.13,422.76 1242.34,412.536 1248.86,409.852C1256.36,406.767 1276.04,408.433 1284.67,410.406C1291.03,411.859 1296.96,417.17 1300.66,421.691C1304.24,426.078 1306.59,434.605 1306.81,437.528C1307.03,440.45 1306.63,450.771 1306.42,456.496C1306.22,461.714 1302.76,468.697 1305.51,471.88C1308.26,475.062 1313.26,479.71 1318.29,478.099C1323.33,476.488 1331.28,469.714 1331.3,465.449C1331.32,461.184 1328.2,454.416 1325.11,450C1321.93,445.453 1318.33,440.161 1316.61,434.931C1314.9,429.735 1312.68,423.669 1314.79,418.622C1316.96,413.439 1323.46,407.138 1329.61,403.835C1339.2,398.677 1362.35,394.161 1372.37,387.676C1380.38,382.491 1387.57,374.214 1389.73,364.921C1391.93,355.471 1395.78,336.031 1385.56,330.979C1374.53,325.526 1342.54,327.333 1323.56,332.205C1304.58,337.077 1285.42,347.636 1271.67,360.214C1257.93,372.791 1251.29,391.851 1241.1,407.669" style="fill:rgb(255,229,111);stroke:rgb(128,128,128);stroke-opacity:0;stroke-width:1.27px;"/>
    </g>
    <g transform="matrix(0.599629,0,-0.0613035,0.904836,487.372,87.2925)">
        <path d="M1361.35,380.293C1365.23,359.668 1354.15,286.77 1377.9,252.08C1401.95,216.927 1458.28,186.906 1492.52,184.455C1509.64,183.229 1553.64,195.622 1562.88,203.352C1572.11,211.083 1595.52,233.887 1589.28,238.122C1583.04,242.356 1547.25,225.769 1547.25,225.769C1547.25,225.769 1561.56,255.197 1556.46,258.565C1551.36,261.932 1516.64,245.976 1516.64,245.976C1516.64,245.976 1525.08,283.344 1518.06,286.71C1511.05,290.076 1474.56,266.173 1474.56,266.173C1474.56,266.173 1485.63,308.144 1479.55,312.437C1473.48,316.729 1438.1,291.928 1438.1,291.928C1438.1,291.928 1391.19,370.184 1378.4,384.912C1374.54,389.357 1360.26,386.08 1361.35,380.293Z" style="fill:white;stroke:rgb(128,128,128);stroke-opacity:0;stroke-width:1.34px;"/>
        <path d="M1439.73,292.009L1479.84,312.384L1478.44,306.246L1439.74,285.674L1439.73,292.009Z" style="fill:rgb(219,219,219);stroke:rgb(128,128,128);stroke-opacity:0;stroke-width:1.34px;"/>
        <g transform="matrix(1,0,0,1,36.0788,-26.7098)">
            <path d="M1439.73,292.009C1446.41,296.461 1473.38,310.011 1479.84,312.384C1481.8,313.108 1480.19,307.409 1478.44,306.246C1471.76,301.794 1446.19,288.047 1439.74,285.674C1437.76,284.946 1437.97,290.839 1439.73,292.009Z" style="fill:rgb(219,219,219);stroke:rgb(128,128,128);stroke-opacity:0;stroke-width:1.34px;"/>
        </g>
        <g transform="matrix(0.336347,0.941738,-0.941738,0.336347,1164.3,-1146.24)">
            <path d="M1405.72,281.665C1402.16,286.384 1475.46,316.825 1504.37,325.057C1506.53,325.671 1510.6,320.844 1508.6,319.829C1493.46,312.135 1430.72,285.253 1413.57,278.892C1410.97,277.927 1407.39,279.448 1405.72,281.665Z" style="fill:rgb(219,219,219);stroke:rgb(128,128,128);stroke-opacity:0;stroke-width:1.14px;"/>
        </g>
        <g transform="matrix(1,0,0,1,74.2639,-54.4874)">
            <path d="M1444.85,297.851C1450.76,301.17 1474.24,310.985 1479.84,312.384C1481.87,312.893 1480.27,307.274 1478.44,306.246C1472.54,302.927 1450,293.869 1444.4,292.47C1442.66,292.034 1443.28,296.969 1444.85,297.851Z" style="fill:rgb(219,219,219);stroke:rgb(128,128,128);stroke-opacity:0;stroke-width:1.34px;"/>
        </g>
        <g transform="matrix(1,0,0,1,105.367,-74.4015)">
            <path d="M1444.85,297.851C1450.76,301.17 1474.24,310.985 1479.84,312.384C1481.87,312.893 1480.27,307.274 1478.44,306.246C1472.54,302.927 1450,293.869 1444.4,292.47C1442.66,292.034 1443.28,296.969 1444.85,297.851Z" style="fill:rgb(219,219,219);stroke:rgb(128,128,128);stroke-opacity:0;stroke-width:1.34px;"/>
        </g>
    </g>
    <g transform="matrix(0.787653,0,0,0.787653,250.833,143.648)">
        <path d="M1361.35,380.293C1365.23,359.668 1354.15,286.77 1377.9,252.08C1401.95,216.927 1458.28,186.906 1492.52,184.455C1509.64,183.229 1553.64,195.622 1562.88,203.352C1572.11,211.083 1595.52,233.887 1589.28,238.122C1583.04,242.356 1547.25,225.769 1547.25,225.769C1547.25,225.769 1561.56,255.197 1556.46,258.565C1551.36,261.932 1516.64,245.976 1516.64,245.976C1516.64,245.976 1525.08,283.344 1518.06,286.71C1511.05,290.076 1474.56,266.173 1474.56,266.173C1474.56,266.173 1485.63,308.144 1479.55,312.437C1473.48,316.729 1438.1,291.928 1438.1,291.928C1438.1,291.928 1391.19,370.184 1378.4,384.912C1374.54,389.357 1360.26,386.08 1361.35,380.293Z" style="fill:white;stroke:rgb(128,128,128);stroke-opacity:0;stroke-width:1.27px;"/>
        <path d="M1439.73,292.009L1479.84,312.384L1478.44,306.246L1439.74,285.674L1439.73,292.009Z" style="fill:rgb(219,219,219);stroke:rgb(128,128,128);stroke-opacity:0;stroke-width:1.27px;"/>
        <g transform="matrix(1,0,0,1,36.0788,-26.7098)">
            <path d="M1439.73,292.009C1446.41,296.461 1473.38,310.011 1479.84,312.384C1481.8,313.108 1480.19,307.409 1478.44,306.246C1471.76,301.794 1446.19,288.047 1439.74,285.674C1437.76,284.946 1437.97,290.839 1439.73,292.009Z" style="fill:rgb(219,219,219);stroke:rgb(128,128,128);stroke-opacity:0;stroke-width:1.27px;"/>
        </g>
        <g transform="matrix(0.336347,0.941738,-0.941738,0.336347,1164.3,-1146.24)">
            <path d="M1405.72,281.665C1402.16,286.384 1475.46,316.825 1504.37,325.057C1506.53,325.671 1510.6,320.844 1508.6,319.829C1493.46,312.135 1430.72,285.253 1413.57,278.892C1410.97,277.927 1407.39,279.448 1405.72,281.665Z" style="fill:rgb(219,219,219);stroke:rgb(128,128,128);stroke-opacity:0;stroke-width:1.27px;"/>
        </g>
        <g transform="matrix(1,0,0,1,74.2639,-54.4874)">
            <path d="M1444.85,297.851C1450.76,301.17 1474.24,310.985 1479.84,312.384C1481.87,312.893 1480.27,307.274 1478.44,306.246C1472.54,302.927 1450,293.869 1444.4,292.47C1442.66,292.034 1443.28,296.969 1444.85,297.851Z" style="fill:rgb(219,219,219);stroke:rgb(128,128,128);stroke-opacity:0;stroke-width:1.27px;"/>
        </g>
        <g transform="matrix(1,0,0,1,105.367,-74.4015)">
            <path d="M1444.85,297.851C1450.76,301.17 1474.24,310.985 1479.84,312.384C1481.87,312.893 1480.27,307.274 1478.44,306.246C1472.54,302.927 1450,293.869 1444.4,292.47C1442.66,292.034 1443.28,296.969 1444.85,297.851Z" style="fill:rgb(219,219,219);stroke:rgb(128,128,128);stroke-opacity:0;stroke-width:1.27px;"/>
        </g>
    </g>
    <g transform="matrix(0.787653,0,0,0.787653,324.602,110.323)">
        <path d="M1444.85,297.851L1479.84,312.384L1478.44,306.246L1444.4,292.47L1444.85,297.851Z" style="fill:rgb(219,219,219);stroke:rgb(128,128,128);stroke-opacity:0;stroke-width:1.27px;"/>
    </g>
    <g transform="matrix(0.787653,0,0,0.787653,586.408,361.19)">
        <path d="M1399.57,306.561C1341.76,292.484 1234.89,349.767 1224.5,381.34C1211.36,421.269 1239.72,470.042 1282.74,465.102C1331.36,459.519 1426.72,413.497 1438.35,383.189C1446.4,362.21 1448.63,318.508 1399.57,306.561Z" style="fill:rgb(255,241,180);stroke:rgb(128,128,128);stroke-opacity:0;stroke-width:1.27px;"/>
        <path d="M1399.57,306.561C1342.04,291.388 1234.89,349.767 1224.5,381.34C1211.36,421.269 1237.79,461.019 1280.81,456.079C1329.43,450.496 1425.51,401.721 1434.36,370.489C1440.3,349.55 1445.11,318.573 1399.57,306.561Z" style="fill:rgb(191,109,65);stroke:rgb(128,128,128);stroke-opacity:0;stroke-width:1.27px;"/>
        <path d="M1241.1,407.669C1235.69,414.486 1227.81,423.285 1224.88,428.119C1223.38,430.588 1221.66,432.382 1221.26,435.842C1220.87,439.236 1222.43,445.873 1223.12,449.176C1223.81,452.48 1224.6,454.569 1227.69,456.496C1230.28,458.114 1234.42,460.612 1236.5,458.994C1238.59,457.377 1239.75,451.017 1240.2,446.791C1240.73,441.778 1238.33,434.719 1239.69,428.916C1241.13,422.76 1242.34,412.536 1248.86,409.852C1256.36,406.767 1276.04,408.433 1284.67,410.406C1291.03,411.859 1296.96,417.17 1300.66,421.691C1304.24,426.078 1306.59,434.605 1306.81,437.528C1307.03,440.45 1306.63,450.771 1306.42,456.496C1306.22,461.714 1302.76,468.697 1305.51,471.88C1308.26,475.062 1313.26,479.71 1318.29,478.099C1323.33,476.488 1331.28,469.714 1331.3,465.449C1331.32,461.184 1328.2,454.416 1325.11,450C1321.93,445.453 1318.33,440.161 1316.61,434.931C1314.9,429.735 1312.68,423.669 1314.79,418.622C1316.96,413.439 1323.46,407.138 1329.61,403.835C1339.2,398.677 1362.35,394.161 1372.37,387.676C1380.38,382.491 1387.57,374.214 1389.73,364.921C1391.93,355.471 1395.78,336.031 1385.56,330.979C1374.53,325.526 1342.54,327.333 1323.56,332.205C1304.58,337.077 1285.42,347.636 1271.67,360.214C1257.93,372.791 1251.29,391.851 1241.1,407.669" style="fill:rgb(255,229,111);stroke:rgb(128,128,128);stroke-opacity:0;stroke-width:1.27px;"/>
    </g>
    <g transform="matrix(0.599629,0,-0.0613035,0.904836,807.672,295.243)">
        <path d="M1361.35,380.293C1365.23,359.668 1354.15,286.77 1377.9,252.08C1401.95,216.927 1458.28,186.906 1492.52,184.455C1509.64,183.229 1553.64,195.622 1562.88,203.352C1572.11,211.083 1595.52,233.887 1589.28,238.122C1583.04,242.356 1547.25,225.769 1547.25,225.769C1547.25,225.769 1561.56,255.197 1556.46,258.565C1551.36,261.932 1516.64,245.976 1516.64,245.976C1516.64,245.976 1525.08,283.344 1518.06,286.71C1511.05,290.076 1474.56,266.173 1474.56,266.173C1474.56,266.173 1485.63,308.144 1479.55,312.437C1473.48,316.729 1438.1,291.928 1438.1,291.928C1438.1,291.928 1391.19,370.184 1378.4,384.912C1374.54,389.357 1360.26,386.08 1361.35,380.293Z" style="fill:white;stroke:rgb(128,128,128);stroke-opacity:0;stroke-width:1.34px;"/>
        <path d="M1439.73,292.009L1479.84,312.384L1478.44,306.246L1439.74,285.674L1439.73,292.009Z" style="fill:rgb(219,219,219);stroke:rgb(128,128,128);stroke-opacity:0;stroke-width:1.34px;"/>
        <g transform="matrix(1,0,0,1,36.0788,-26.7098)">
            <path d="M1439.73,292.009C1446.41,296.461 1473.38,310.011 1479.84,312.384C1481.8,313.108 1480.19,307.409 1478.44,306.246C1471.76,301.794 1446.19,288.047 1439.74,285.674C1437.76,284.946 1437.97,290.839 1439.73,292.009Z" style="fill:rgb(219,219,219);stroke:rgb(128,128,128);stroke-opacity:0;stroke-width:1.34px;"/>
        </g>
        <g transform="matrix(0.336347,0.941738,-0.941738,0.336347,1164.3,-1146.24)">
            <path d="M1405.72,281.665C1402.16,286.384 1475.46,316.825 1504.37,325.057C1506.53,325.671 1510.6,320.844 1508.6,319.829C1493.46,312.135 1430.72,285.253 1413.57,278.892C1410.97,277.927 1407.39,279.448 1405.72,281.665Z" style="fill:rgb(219,219,219);stroke:rgb(128,128,128);stroke-opacity:0;stroke-width:1.14px;"/>
        </g>
        <g transform="matrix(1,0,0,1,74.2639,-54.4874)">
            <path d="M1444.85,297.851C1450.76,301.17 1474.24,310.985 1479.84,312.384C1481.87,312.893 1480.27,307.274 1478.44,306.246C1472.54,302.927 1450,293.869 1444.4,292.47C1442.66,292.034 1443.28,296.969 1444.85,297.851Z" style="fill:rgb(219,219,219);stroke:rgb(128,128,128);stroke-opacity:0;stroke-width:1.34px;"/>
        </g>
        <g transform="matrix(1,0,0,1,105.367,-74.4015)">
            <path d="M1444.85,297.851C1450.76,301.17 1474.24,310.985 1479.84,312.384C1481.87,312.893 1480.27,307.274 1478.44,306.246C1472.54,302.927 1450,293.869 1444.4,292.47C1442.66,292.034 1443.28,296.969 1444.85,297.851Z" style="fill:rgb(219,219,219);stroke:rgb(128,128,128);stroke-opacity:0;stroke-width:1.34px;"/>
        </g>
    </g>
    <g transform="matrix(0.787653,0,0,0.787653,571.133,351.598)">
        <path d="M1361.35,380.293C1365.23,359.668 1354.15,286.77 1377.9,252.08C1401.95,216.927 1458.28,186.906 1492.52,184.455C1509.64,183.229 1553.64,195.622 1562.88,203.352C1572.11,211.083 1595.52,233.887 1589.28,238.122C1583.04,242.356 1547.25,225.769 1547.25,225.769C1547.25,225.769 1561.56,255.197 1556.46,258.565C1551.36,261.932 1516.64,245.976 1516.64,245.976C1516.64,245.976 1525.08,283.344 1518.06,286.71C1511.05,290.076 1474.56,266.173 1474.56,266.173C1474.56,266.173 1485.63,308.144 1479.55,312.437C1473.48,316.729 1438.1,291.928 1438.1,291.928C1438.1,291.928 1391.19,370.184 1378.4,384.912C1374.54,389.357 1360.26,386.08 1361.35,380.293Z" style="fill:white;stroke:rgb(128,128,128);stroke-opacity:0;stroke-width:1.27px;"/>
        <path d="M1439.73,292.009L1479.84,312.384L1478.44,306.246L1439.74,285.674L1439.73,292.009Z" style="fill:rgb(219,219,219);stroke:rgb(128,128,128);stroke-opacity:0;stroke-width:1.27px;"/>
        <g transform="matrix(1,0,0,1,36.0788,-26.7098)">
            <path d="M1439.73,292.009C1446.41,296.461 1473.38,310.011 1479.84,312.384C1481.8,313.108 1480.19,307.409 1478.44,306.246C1471.76,301.794 1446.19,288.047 1439.74,285.674C1437.76,284.946 1437.97,290.839 1439.73,292.009Z" style="fill:rgb(219,219,219);stroke:rgb(128,128,128);stroke-opacity:0;stroke-width:1.27px;"/>
        </g>
        <g transform="matrix(0.336347,0.941738,-0.941738,0.336347,1164.3,-1146.24)">
            <path d="M1405.72,281.665C1402.16,286.384 1475.46,316.825 1504.37,325.057C1506.53,325.671 1510.6,320.844 1508.6,319.829C1493.46,312.135 1430.72,285.253 1413.57,278.892C1410.97,277.927 1407.39,279.448 1405.72,281.665Z" style="fill:rgb(219,219,219);stroke:rgb(128,128,128);stroke-opacity:0;stroke-width:1.27px;"/>
        </g>
        <g transform="matrix(1,0,0,1,74.2639,-54.4874)">
            <path d="M1444.85,297.851C1450.76,301.17 1474.24,310.985 1479.84,312.384C1481.87,312.893 1480.27,307.274 1478.44,306.246C1472.54,302.927 1450,293.869 1444.4,292.47C1442.66,292.034 1443.28,296.969 1444.85,297.851Z" style="fill:rgb(219,219,219);stroke:rgb(128,128,128);stroke-opacity:0;stroke-width:1.27px;"/>
        </g>
        <g transform="matrix(1,0,0,1,105.367,-74.4015)">
            <path d="M1444.85,297.851C1450.76,301.17 1474.24,310.985 1479.84,312.384C1481.87,312.893 1480.27,307.274 1478.44,306.246C1472.54,302.927 1450,293.869 1444.4,292.47C1442.66,292.034 1443.28,296.969 1444.85,297.851Z" style="fill:rgb(219,219,219);stroke:rgb(128,128,128);stroke-opacity:0;stroke-width:1.27px;"/>
        </g>
    </g>
    <g transform="matrix(0.787653,0,0,0.787653,644.902,318.273)">
        <path d="M1444.85,297.851L1479.84,312.384L1478.44,306.246L1444.4,292.47L1444.85,297.851Z" style="fill:rgb(219,219,219);stroke:rgb(128,128,128);stroke-opacity:0;stroke-width:1.27px;"/>
    </g>
    <g transform="matrix(0.787653,0,0,0.787653,834.733,61.0957)">
        <path d="M1399.57,306.561C1341.76,292.484 1234.89,349.767 1224.5,381.34C1211.36,421.269 1239.72,470.042 1282.74,465.102C1331.36,459.519 1426.72,413.497 1438.35,383.189C1446.4,362.21 1448.63,318.508 1399.57,306.561Z" style="fill:rgb(255,241,180);stroke:rgb(128,128,128);stroke-opacity:0;stroke-width:1.27px;"/>
        <path d="M1399.57,306.561C1342.04,291.388 1234.89,349.767 1224.5,381.34C1211.36,421.269 1237.79,461.019 1280.81,456.079C1329.43,450.496 1425.51,401.721 1434.36,370.489C1440.3,349.55 1445.11,318.573 1399.57,306.561Z" style="fill:rgb(191,109,65);stroke:rgb(128,128,128);stroke-opacity:0;stroke-width:1.27px;"/>
        <path d="M1241.1,407.669C1235.69,414.486 1227.81,423.285 1224.88,428.119C1223.38,430.588 1221.66,432.382 1221.26,435.842C1220.87,439.236 1222.43,445.873 1223.12,449.176C1223.81,452.48 1224.6,454.569 1227.69,456.496C1230.28,458.114 1234.42,460.612 1236.5,458.994C1238.59,457.377 1239.75,451.017 1240.2,446.791C1240.73,441.778 1238.33,434.719 1239.69,428.916C1241.13,422.76 1242.34,412.536 1248.86,409.852C1256.36,406.767 1276.04,408.433 1284.67,410.406C1291.03,411.859 1296.96,417.17 1300.66,421.691C1304.24,426.078 1306.59,434.605 1306.81,437.528C1307.03,440.45 1306.63,450.771 1306.42,456.496C1306.22,461.714 1302.76,468.697 1305.51,471.88C1308.26,475.062 1313.26,479.71 1318.29,478.099C1323.33,476.488 1331.28,469.714 1331.3,465.449C1331.32,461.184 1328.2,454.416 1325.11,450C1321.93,445.453 1318.33,440.161 1316.61,434.931C1314.9,429.735 1312.68,423.669 1314.79,418.622C1316.96,413.439 1323.46,407.138 1329.61,403.835C1339.2,398.677 1362.35,394.161 1372.37,387.676C1380.38,382.491 1387.57,374.214 1389.73,364.921C1391.93,355.471 1395.78,336.031 1385.56,330.979C1374.53,325.526 1342.54,327.333 1323.56,332.205C1304.58,337.077 1285.42,347.636 1271.67,360.214C1257.93,372.791 1251.29,391.851 1241.1,407.669" style="fill:rgb(255,229,111);stroke:rgb(128,128,128);stroke-opacity:0;stroke-width:1.27px;"/>
    </g>
    <g transform="matrix(0.599629,0,-0.0613035,0.904836,1056,-4.85163)">
        <path d="M1361.35,380.293C1365.23,359.668 1354.15,286.77 1377.9,252.08C1401.95,216.927 1458.28,186.906 1492.52,184.455C1509.64,183.229 1553.64,195.622 1562.88,203.352C1572.11,211.083 1595.52,233.887 1589.28,238.122C1583.04,242.356 1547.25,225.769 1547.25,225.769C1547.25,225.769 1561.56,255.197 1556.46,258.565C1551.36,261.932 1516.64,245.976 1516.64,245.976C1516.64,245.976 1525.08,283.344 1518.06,286.71C1511.05,290.076 1474.56,266.173 1474.56,266.173C1474.56,266.173 1485.63,308.144 1479.55,312.437C1473.48,316.729 1438.1,291.928 1438.1,291.928C1438.1,291.928 1391.19,370.184 1378.4,384.912C1374.54,389.357 1360.26,386.08 1361.35,380.293Z" style="fill:white;stroke:rgb(128,128,128);stroke-opacity:0;stroke-width:1.34px;"/>
        <path d="M1439.73,292.009L1479.84,312.384L1478.44,306.246L1439.74,285.674L1439.73,292.009Z" style="fill:rgb(219,219,219);stroke:rgb(128,128,128);stroke-opacity:0;stroke-width:1.34px;"/>
        <g transform="matrix(1,0,0,1,36.0788,-26.7098)">
            <path d="M1439.73,292.009C1446.41,296.461 1473.38,310.011 1479.84,312.384C1481.8,313.108 1480.19,307.409 1478.44,306.246C1471.76,301.794 1446.19,288.047 1439.74,285.674C1437.76,284.946 1437.97,290.839 1439.73,292.009Z" style="fill:rgb(219,219,219);stroke:rgb(128,128,128);stroke-opacity:0;stroke-width:1.34px;"/>
        </g>
        <g transform="matrix(0.336347,0.941738,-0.941738,0.336347,1164.3,-1146.24)">
            <path d="M1405.72,281.665C1402.16,286.384 1475.46,316.825 1504.37,325.057C1506.53,325.671 1510.6,320.844 1508.6,319.829C1493.46,312.135 1430.72,285.253 1413.57,278.892C1410.97,277.927 1407.39,279.448 1405.72,281.665Z" style="fill:rgb(219,219,219);stroke:rgb(128,128,128);stroke-opacity:0;stroke-width:1.14px;"/>
        </g>
        <g transform="matrix(1,0,0,1,74.2639,-54.4874)">
            <path d="M1444.85,297.851C1450.76,301.17 1474.24,310.985 1479.84,312.384C1481.87,312.893 1480.27,307.274 1478.44,306.246C1472.54,302.927 1450,293.869 1444.4,292.47C1442.66,292.034 1443.28,296.969 1444.85,297.851Z" style="fill:rgb(219,219,219);stroke:rgb(128,128,128);stroke-opacity:0;stroke-width:1.34px;"/>
        </g>
        <g transform="matrix(1,0,0,1,105.367,-74.4015)">
            <path d="M1444.85,297.851C1450.76,301.17 1474.24,310.985 1479.84,312.384C1481.87,312.893 1480.27,307.274 1478.44,306.246C1472.54,302.927 1450,293.869 1444.4,292.47C1442.66,292.034 1443.28,296.969 1444.85,297.851Z" style="fill:rgb(219,219,219);stroke:rgb(128,128,128);stroke-opacity:0;stroke-width:1.34px;"/>
        </g>
    </g>
    <g transform="matrix(0.787653,0,0,0.787653,819.458,51.5035)">
        <path d="M1361.35,380.293C1365.23,359.668 1354.15,286.77 1377.9,252.08C1401.95,216.927 1458.28,186.906 1492.52,184.455C1509.64,183.229 1553.64,195.622 1562.88,203.352C1572.11,211.083 1595.52,233.887 1589.28,238.122C1583.04,242.356 1547.25,225.769 1547.25,225.769C1547.25,225.769 1561.56,255.197 1556.46,258.565C1551.36,261.932 1516.64,245.976 1516.64,245.976C1516.64,245.976 1525.08,283.344 1518.06,286.71C1511.05,290.076 1474.56,266.173 1474.56,266.173C1474.56,266.173 1485.63,308.144 1479.55,312.437C1473.48,316.729 1438.1,291.928 1438.1,291.928C1438.1,291.928 1391.19,370.184 1378.4,384.912C1374.54,389.357 1360.26,386.08 1361.35,380.293Z" style="fill:white;stroke:rgb(128,128,128);stroke-opacity:0;stroke-width:1.27px;"/>
        <path d="M1439.73,292.009L1479.84,312.384L1478.44,306.246L1439.74,285.674L1439.73,292.009Z" style="fill:rgb(219,219,219);stroke:rgb(128,128,128);stroke-opacity:0;stroke-width:1.27px;"/>
        <g transform="matrix(1,0,0,1,36.0788,-26.7098)">
            <path d="M1439.73,292.009C1446.41,296.461 1473.38,310.011 1479.84,312.384C1481.8,313.108 1480.19,307.409 1478.44,306.246C1471.76,301.794 1446.19,288.047 1439.74,285.674C1437.76,284.946 1437.97,290.839 1439.73,292.009Z" style="fill:rgb(219,219,219);stroke:rgb(128,128,128);stroke-opacity:0;stroke-width:1.27px;"/>
        </g>
        <g transform="matrix(0.336347,0.941738,-0.941738,0.336347,1164.3,-1146.24)">
            <path d="M1405.72,281.665C1402.16,286.384 1475.46,316.825 1504.37,325.057C1506.53,325.671 1510.6,320.844 1508.6,319.829C1493.46,312.135 1430.72,285.253 1413.57,278.892C1410.97,277.927 1407.39,279.448 1405.72,281.665Z" style="fill:rgb(219,219,219);stroke:rgb(128,128,128);stroke-opacity:0;stroke-width:1.27px;"/>
        </g>
        <g transform="matrix(1,0,0,1,74.2639,-54.4874)">
            <path d="M1444.85,297.851C1450.76,301.17 1474.24,310.985 1479.84,312.384C1481.87,312.893 1480.27,307.274 1478.44,306.246C1472.54,302.927 1450,293.869 1444.4,292.47C1442.66,292.034 1443.28,296.969 1444.85,297.851Z" style="fill:rgb(219,219,219);stroke:rgb(128,128,128);stroke-opacity:0;stroke-width:1.27px;"/>
        </g>
        <g transform="matrix(1,0,0,1,105.367,-74.4015)">
            <path d="M1444.85,297.851C1450.76,301.17 1474.24,310.985 1479.84,312.384C1481.87,312.893 1480.27,307.274 1478.44,306.246C1472.54,302.927 1450,293.869 1444.4,292.47C1442.66,292.034 1443.28,296.969 1444.85,297.851Z" style="fill:rgb(219,219,219);stroke:rgb(128,128,128);stroke-opacity:0;stroke-width:1.27px;"/>
        </g>
    </g>
    <g transform="matrix(0.787653,0,0,0.787653,893.227,18.1785)">
        <path d="M1444.85,297.851L1479.84,312.384L1478.44,306.246L1444.4,292.47L1444.85,297.851Z" style="fill:rgb(219,219,219);stroke:rgb(128,128,128);stroke-opacity:0;stroke-width:1.27px;"/>
    </g>
</svg>
