<svg version="1.1" viewBox="0.0 0.0 1152.0 864.0" fill="none" stroke="none" stroke-linecap="square" stroke-miterlimit="10" xmlns:xlink="http://www.w3.org/1999/xlink" xmlns="http://www.w3.org/2000/svg"><clipPath id="p.0"><path d="m0 0l1152.0 0l0 864.0l-1152.0 0l0 -864.0z" clip-rule="nonzero"/></clipPath><g clip-path="url(#p.0)"><path fill="#000000" fill-opacity="0.0" d="m0 0l1152.0 0l0 864.0l-1152.0 0z" fill-rule="evenodd"/><path fill="#1155cc" d="m256.12125 369.77954l22.73703 34.437775l21.40158 -9.694489l-27.083466 -21.735413l-5.3511963 -3.0078735z" fill-rule="evenodd"/><path fill="#1155cc" d="m244.08661 491.15277l-24.743301 -28.422058l-8.025192 15.048828l24.072433 24.072418z" fill-rule="evenodd"/><path fill="#1155cc" d="m642.6472 567.0551l5.6850586 -22.737l-10.699219 -12.037781l1.338623 29.757446z" fill-rule="evenodd"/><path fill="#1155cc" d="m513.24884 544.98584l5.017273 21.398438l6.6866455 -8.0252075l-5.017334 -21.398438z" fill-rule="evenodd"/><path fill="#1155cc" d="m909.1386 566.71814l25.077148 -22.066162l-11.036255 -10.031494l-21.732239 27.75116z" fill-rule="evenodd"/><path fill="#1155cc" d="m810.16534 566.71814l18.390564 -21.398438l-9.026794 -9.026794l-19.061401 22.066162z" fill-rule="evenodd"/><path fill="#1155cc" d="m904.7921 336.67715l25.077148 -39.45511l18.724426 32.431488l-28.088196 18.390564z" fill-rule="evenodd"/><path fill="#1155cc" d="m831.9008 297.5559l-18.056702 39.45511l12.705505 10.699219l14.044067 -23.738586z" fill-rule="evenodd"/><path fill="#1155cc" d="m602.5244 296.88818l-1.338562 41.795288l17.055115 3.6755981z" fill-rule="evenodd"/><path fill="#1155cc" d="m719.5512 296.88818l-10.028381 41.12442l14.377991 3.3448792z" fill-rule="evenodd"/><path fill="#1155cc" d="m713.86926 566.71814l11.366943 -22.400024l-11.700745 -4.3464355z" fill-rule="evenodd"/><path fill="#1155cc" d="m265.62994 333.663c-19.855774 0 -35.55568 5.1563416 -47.09973 15.469025c-11.544052 10.281891 -17.31607 25.166016 -17.31607 44.652374c0 13.8220825 2.9706726 25.412323 8.912003 34.77069c5.972122 9.358368 13.314148 17.731659 22.026047 25.119843l19.855759 17.269897c7.757614 6.6493835 13.899033 13.237183 18.424301 19.763428c4.556061 6.495453 6.834076 14.483917 6.834076 23.965454c0 3.9711304 -0.8157654 7.7575684 -2.4473267 11.359314c-1.600769 3.570984 -5.048584 5.3564453 -10.343475 5.3564453c-4.1558533 0 -7.6960144 -1.3236694 -10.620514 -3.9711304c-2.9244995 -2.647461 -5.202545 -6.988037 -6.834091 -13.0217285c-1.6007538 -6.064453 -2.493515 -14.022156 -2.6782074 -23.873077l-43.40564 6.5570374c0.5541229 17.02362 3.2939148 30.876465 8.219376 41.558594c4.9254456 10.682068 12.205887 18.578186 21.84134 23.688354c9.666229 5.1101685 21.687439 7.665283 36.063614 7.665283c12.282867 0 22.918793 -2.5551147 31.907745 -7.665283c8.988953 -5.1101685 15.930786 -12.051941 20.82547 -20.82544c4.9254456 -8.80426 7.3881836 -18.609009 7.3881836 -29.414246c0 -15.884613 -3.447815 -29.214142 -10.343445 -39.988586c-6.8956604 -10.774445 -15.361298 -20.425262 -25.396912 -28.952484l-19.024597 -16.71579c-6.6185913 -5.8797607 -11.959656 -11.513245 -16.023163 -16.900482c-4.063492 -5.3872375 -6.0952454 -12.329041 -6.0952454 -20.82547c0 -3.971161 1.0774536 -7.9422913 3.2323303 -11.913452c2.1856842 -3.971161 5.6488953 -5.956726 10.389648 -5.956726c4.340576 0 7.5421143 1.369873 9.604645 4.10968c2.0933228 2.7397766 3.4786072 6.6185913 4.1558533 11.636383c0.6772461 4.98703 1.1082458 10.897583 1.2929382 17.73169l43.68268 -5.4026184c-0.18469238 -6.803314 -0.9850769 -13.945221 -2.4011536 -21.425781c-1.4160767 -7.48053 -4.063507 -14.576263 -7.9422913 -21.2872c-3.8788147 -6.710968 -9.558502 -12.144348 -17.039032 -16.300201c-7.48053 -4.155884 -17.362244 -6.233795 -29.645111 -6.233795z" fill-rule="evenodd"/><path fill="#1155cc" d="m417.68884 369.40338c5.294861 0 9.173676 1.3237 11.636383 3.9711304c2.462738 2.647461 4.063507 6.0029297 4.8023376 10.066437c0.7695923 4.063507 1.154419 8.3732605 1.154419 12.929321l0 110.63818c0 4.3405457 -0.38482666 8.588776 -1.154419 12.744598c-0.73883057 4.155884 -2.3395996 7.557495 -4.8023376 10.204956c-2.4627075 2.647461 -6.341522 3.9711914 -11.636383 3.9711914c-5.2948914 0 -9.127502 -1.3237305 -11.497894 -3.9711914c-2.3703613 -2.647461 -3.894165 -6.0490723 -4.5714417 -10.204956c-0.64645386 -4.1558228 -0.96969604 -8.404053 -0.96969604 -12.744598l0 -110.63818c0 -4.556061 0.38479614 -8.865845 1.154419 -12.929321c0.7695923 -4.063507 2.3703918 -7.418976 4.802307 -10.066437c2.462738 -2.6474304 6.15683 -3.9711304 11.082306 -3.9711304zm0 -35.740387c-17.208344 0 -30.830322 2.9860535 -40.865936 8.958191c-10.004852 5.9413147 -17.192932 14.499329 -21.5643 25.67395c-4.3405457 11.14386 -6.5108337 24.658112 -6.5108337 40.542694l0 85.37982c0 15.69989 2.170288 29.229492 6.5108337 40.588867c4.371338 11.359314 11.559448 20.071228 21.5643 26.135742c10.035614 6.0336914 23.657593 9.050537 40.865936 9.050537c17.393036 0 31.153534 -3.0168457 41.281525 -9.050537c10.12796 -6.064514 17.362244 -14.776428 21.70282 -26.135742c4.3405457 -11.359375 6.5108337 -24.888977 6.5108337 -40.588867l0 -85.37982c0 -15.8845825 -2.170288 -29.398834 -6.5108337 -40.542694c-4.340576 -11.174622 -11.57486 -19.732635 -21.70282 -25.67395c-10.127991 -5.9721375 -23.888489 -8.958191 -41.281525 -8.958191z" fill-rule="evenodd"/><path fill="#1155cc" d="m518.1398 336.7568l0 229.81894l43.40558 0l0 -119.13458l47.09973 119.13458l34.30896 0l0 -229.81894l-41.974182 0l0 110.68436l-47.09973 -110.68436z" fill-rule="evenodd"/><path fill="#1155cc" d="m738.8519 398.03262l12.190491 89.674164l-24.380981 0l12.190491 -89.674164zm-29.229553 -61.275818l-43.40564 229.81894l47.93091 0l7.942322 -48.53119l33.800964 0l7.6190796 48.53119l46.822693 0l-42.851562 -229.81894zm104.3988 0l41.420044 229.81894l53.610596 0l42.020325 -229.81894l-45.991516 0l-22.949524 156.07556l-24.704285 -156.07556z" fill-rule="evenodd"/><path fill="#1155cc" d="m254.06705 314.54803c-20.595581 0 -36.880463 5.34848 -48.854645 16.04544c-11.974182 10.665039 -17.961273 26.10382 -17.961273 46.316315c0 14.337128 3.0813599 26.359253 9.244064 36.066345c6.1946564 9.707123 13.810226 18.392395 22.84674 26.055908l20.595581 17.913452c8.046646 6.8971252 14.416916 13.730408 19.110794 20.499847c4.7257996 6.737488 7.0887146 15.023651 7.0887146 24.85849c0 4.1191406 -0.8461609 8.046692 -2.5385132 11.782654c-1.6604309 3.7040405 -5.2366943 5.5560303 -10.728882 5.5560303c-4.3106995 0 -7.982773 -1.3730469 -11.016235 -4.1191406c-3.0334778 -2.7460938 -5.3963776 -7.248413 -7.0887146 -13.5069275c-1.6604156 -6.2904663 -2.5864258 -14.544708 -2.7780151 -24.762695l-45.02292 6.801361c0.57476807 17.65799 3.4166412 32.02704 8.5256195 43.107178c5.1089783 11.0802 12.66069 19.270569 22.655151 24.571106c10.026382 5.300598 22.495499 7.9509277 37.407333 7.9509277c12.74054 0 23.772736 -2.6503296 33.09662 -7.9509277c9.323914 -5.300537 16.524384 -12.501038 21.60144 -21.60144c5.1089783 -9.132385 7.6634827 -19.30249 7.6634827 -30.510345c0 -16.476532 -3.576294 -30.302765 -10.728882 -41.4787c-7.152588 -11.175934 -15.933655 -21.186401 -26.3432 -30.031372l-19.733429 -17.338654c-6.865219 -6.098877 -12.405258 -11.942291 -16.620178 -17.530273c-4.214905 -5.587982 -6.322357 -12.788452 -6.322357 -21.601501c0 -4.11911 1.1175995 -8.238251 3.352768 -12.357391c2.2671204 -4.1191406 5.859375 -6.1786804 10.776764 -6.1786804c4.5022736 0 7.8231354 1.420929 9.962509 4.2628174c2.1713257 2.8418884 3.6082458 6.865204 4.3106995 12.070007c0.70248413 5.1728516 1.1495361 11.30368 1.3411255 18.392395l45.310303 -5.6039124c-0.19158936 -7.0568237 -1.0218201 -14.464874 -2.490631 -22.224182c-1.4688416 -7.7592773 -4.2149353 -15.119446 -8.238251 -22.080444c-4.0233154 -6.961029 -9.914612 -12.596893 -17.67389 -16.907623c-7.7592773 -4.3106995 -18.009155 -6.4660645 -30.749695 -6.4660645z" fill-rule="evenodd"/><path fill="#1155cc" d="m411.79166 351.6202c5.492157 0 9.515472 1.3730469 12.069977 4.1191406c2.5544739 2.7460938 4.214905 6.226593 4.9812317 10.441528c0.7983093 4.2149353 1.1974182 8.685303 1.1974182 13.411133l0 114.760956c0 4.502289 -0.3991089 8.908813 -1.1974182 13.219513c-0.7663269 4.31073 -2.4267578 7.839142 -4.9812317 10.585236c-2.5545044 2.7460938 -6.57782 4.1191406 -12.069977 4.1191406c-5.492157 0 -9.46759 -1.3730469 -11.9263 -4.1191406c-2.4586792 -2.7460938 -4.039276 -6.2745056 -4.7417603 -10.585236c-0.67056274 -4.3106995 -1.0058289 -8.717224 -1.0058289 -13.219513l0 -114.760956c0 -4.72583 0.3991394 -9.1961975 1.1974182 -13.411133c0.7982788 -4.2149353 2.4587097 -7.6954346 4.981262 -10.441528c2.5544739 -2.7460938 6.3862 -4.1191406 11.495209 -4.1191406zm0 -37.072174c-17.849518 0 -31.979065 3.0973206 -42.38861 9.291992c-10.3776245 6.1627197 -17.833527 15.039612 -22.367767 26.630676c-4.502289 11.559113 -6.753418 25.576935 -6.753418 42.053467l0 88.56134c0 16.284943 2.2511292 30.318726 6.753418 42.10138c4.53421 11.782654 11.990143 20.819153 22.367767 27.10962c10.409546 6.258545 24.539093 9.387817 42.38861 9.387817c18.041077 0 32.3143 -3.1292725 42.81964 -9.387817c10.505371 -6.2904663 18.009186 -15.326965 22.511475 -27.10962c4.502289 -11.782654 6.7534485 -25.816437 6.7534485 -42.10138l0 -88.56134c0 -16.476532 -2.2511597 -30.494354 -6.7534485 -42.053467c-4.502289 -11.591064 -12.0061035 -20.467957 -22.511475 -26.630676c-10.505341 -6.1946716 -24.778564 -9.291992 -42.81964 -9.291992z" fill-rule="evenodd"/><path fill="#1155cc" d="m515.98535 317.7571l0 238.38284l45.02289 0l0 -123.573975l48.854675 123.573975l35.58728 0l0 -238.38284l-43.538147 0l0 114.80887l-48.854614 -114.80887z" fill-rule="evenodd"/><path fill="#1155cc" d="m744.9212 381.31628l12.644775 93.01578l-25.28949 0l12.644714 -93.01578zm-30.318604 -63.559174l-45.02289 238.38284l49.716797 0l8.23822 -50.33963l35.060364 0l7.902954 50.33963l48.56732 0l-44.44818 -238.38284zm108.2887 0l42.963318 238.38284l55.608093 0l43.58606 -238.38284l-47.70514 0l-23.804688 161.89151l-25.624756 -161.89151z" fill-rule="evenodd"/><path fill="#3c78d8" d="m242.00519 294.00946c-21.367264 0 -38.2623 5.5488586 -50.685135 16.646606c-12.422821 11.064606 -18.634247 27.081818 -18.634247 48.051575c0 14.874298 3.1968231 27.346832 9.590424 37.417633c6.426758 10.070801 14.3276825 19.081482 23.702759 27.032104l21.367264 18.584595c8.348145 7.155548 14.957092 14.244873 19.826843 21.267914c4.9028625 6.989929 7.354309 15.586517 7.354309 25.789825c0 4.273468 -0.87786865 8.348175 -2.6336365 12.224091c-1.7226257 3.842804 -5.432907 5.764221 -11.130859 5.764221c-4.4722137 0 -8.281876 -1.4244995 -11.429001 -4.273468c-3.1471252 -2.848999 -5.598572 -7.519989 -7.354309 -14.01297c-1.7226257 -6.5261536 -2.6833344 -15.089661 -2.8820953 -25.69046l-46.70984 7.056183c0.5962982 18.31955 3.5446625 33.22696 8.845047 44.72223c5.3004 11.4953 13.135056 19.992554 23.503998 25.4917c10.402054 5.4992065 23.338364 8.248779 38.808914 8.248779c13.2178955 0 24.663452 -2.7495728 34.3367 -8.248779c9.673218 -5.4991455 17.143494 -12.969421 22.410767 -22.410828c5.300415 -9.474457 7.9506226 -20.025604 7.9506226 -31.653412c0 -17.093842 -3.710266 -31.43808 -11.130859 -43.032745c-7.4205627 -11.594635 -16.53067 -21.980164 -27.33023 -31.156494l-20.472809 -17.988281c-7.1224213 -6.3273926 -12.870041 -12.38974 -17.24289 -18.187073c-4.3728333 -5.797333 -6.55925 -13.267609 -6.55925 -22.410797c0 -4.273468 1.1594696 -8.546936 3.4783936 -12.820404c2.352066 -4.2734375 6.0789185 -6.410187 11.180542 -6.410187c4.67099 0 8.116257 1.4741821 10.3358 4.4225464c2.2526703 2.9483643 3.7434235 7.1224365 4.4722137 12.522217c0.72880554 5.3666687 1.1925812 11.727173 1.3913727 19.081512l47.007965 -5.813904c-0.19876099 -7.3211975 -1.0600891 -15.006805 -2.5839539 -23.056793c-1.5238647 -8.050018 -4.3728333 -15.685913 -8.5469055 -22.907745c-4.1740723 -7.2218323 -10.286102 -13.068848 -18.33609 -17.541077c-8.049988 -4.4721985 -18.68393 -6.708313 -31.901825 -6.708313z" fill-rule="evenodd"/><path fill="#3c78d8" d="m405.6394 332.47058c5.697937 0 9.872009 1.4244995 12.522217 4.273468c2.6502075 2.8489685 4.3728333 6.4598694 5.1679077 10.832733c0.82818604 4.3728333 1.242279 9.010681 1.242279 13.913574l0 119.06061c0 4.67099 -0.41409302 9.242584 -1.242279 13.714813c-0.79507446 4.472229 -2.5177002 8.1328125 -5.1679077 10.981812c-2.6502075 2.8489685 -6.82428 4.2734375 -12.522217 4.2734375c-5.697937 0 -9.822327 -1.424469 -12.373138 -4.2734375c-2.5508118 -2.848999 -4.190613 -6.5095825 -4.9194336 -10.981812c-0.6956787 -4.472229 -1.0435181 -9.043823 -1.0435181 -13.714813l0 -119.06061c0 -4.902893 0.41409302 -9.540741 1.242279 -13.913574c0.82818604 -4.372864 2.5508423 -7.9837646 5.1679077 -10.832733c2.6502075 -2.8489685 6.6254883 -4.273468 11.925903 -4.273468zm0 -38.46112c-18.51828 0 -33.177216 3.213379 -43.976807 9.640106c-10.766449 6.3936462 -18.501709 15.603119 -23.205841 27.628418c-4.67099 11.992218 -7.0064697 26.535217 -7.0064697 43.62906l0 91.879395c0 16.89508 2.3354797 31.45465 7.0064697 43.67874c4.7041016 12.224091 12.439362 21.599213 23.205841 28.125336c10.799591 6.492981 25.458527 9.739502 43.976807 9.739502c18.717072 0 33.525085 -3.246521 44.42404 -9.739502c10.898956 -6.526123 18.68393 -15.901245 23.35492 -28.125336c4.67099 -12.224091 7.0064697 -26.78366 7.0064697 -43.67874l0 -91.879395c0 -17.093842 -2.3354797 -31.63684 -7.0064697 -43.62906c-4.67099 -12.025299 -12.455963 -21.234772 -23.35492 -27.628418c-10.898956 -6.4267273 -25.70697 -9.640106 -44.42404 -9.640106z" fill-rule="evenodd"/><path fill="#3c78d8" d="m513.73706 297.33878l0 247.31406l46.70984 0l0 -128.20377l50.68512 128.20377l36.920654 0l0 -247.31406l-45.169434 0l0 119.11029l-50.68512 -119.11029z" fill-rule="evenodd"/><path fill="#3c78d8" d="m751.2507 363.27927l13.11853 96.50067l-26.237 0l13.118469 -96.50067zm-31.45459 -65.94049l-46.70984 247.31406l51.57959 0l8.546936 -52.225647l36.374023 0l8.199036 52.225647l50.387024 0l-46.113525 -247.31406zm112.34607 0l44.57306 247.31406l57.69165 0l45.219055 -247.31406l-49.492493 0l-24.696594 167.95691l-26.584839 -167.95691z" fill-rule="evenodd"/><path stroke="#1155cc" stroke-width="2.0" stroke-linejoin="round" stroke-linecap="butt" d="m242.00519 294.00946c-21.367264 0 -38.2623 5.5488586 -50.685135 16.646606c-12.422821 11.064606 -18.634247 27.081818 -18.634247 48.051575c0 14.874298 3.1968231 27.346832 9.590424 37.417633c6.426758 10.070801 14.3276825 19.081482 23.702759 27.032104l21.367264 18.584595c8.348145 7.155548 14.957092 14.244873 19.826843 21.267914c4.9028625 6.989929 7.354309 15.586517 7.354309 25.789825c0 4.273468 -0.87786865 8.348175 -2.6336365 12.224091c-1.7226257 3.842804 -5.432907 5.764221 -11.130859 5.764221c-4.4722137 0 -8.281876 -1.4244995 -11.429001 -4.273468c-3.1471252 -2.848999 -5.598572 -7.519989 -7.354309 -14.01297c-1.7226257 -6.5261536 -2.6833344 -15.089661 -2.8820953 -25.69046l-46.70984 7.056183c0.5962982 18.31955 3.5446625 33.22696 8.845047 44.72223c5.3004 11.4953 13.135056 19.992554 23.503998 25.4917c10.402054 5.4992065 23.338364 8.248779 38.808914 8.248779c13.2178955 0 24.663452 -2.7495728 34.3367 -8.248779c9.673218 -5.4991455 17.143494 -12.969421 22.410767 -22.410828c5.300415 -9.474457 7.9506226 -20.025604 7.9506226 -31.653412c0 -17.093842 -3.710266 -31.43808 -11.130859 -43.032745c-7.4205627 -11.594635 -16.53067 -21.980164 -27.33023 -31.156494l-20.472809 -17.988281c-7.1224213 -6.3273926 -12.870041 -12.38974 -17.24289 -18.187073c-4.3728333 -5.797333 -6.55925 -13.267609 -6.55925 -22.410797c0 -4.273468 1.1594696 -8.546936 3.4783936 -12.820404c2.352066 -4.2734375 6.0789185 -6.410187 11.180542 -6.410187c4.67099 0 8.116257 1.4741821 10.3358 4.4225464c2.2526703 2.9483643 3.7434235 7.1224365 4.4722137 12.522217c0.72880554 5.3666687 1.1925812 11.727173 1.3913727 19.081512l47.007965 -5.813904c-0.19876099 -7.3211975 -1.0600891 -15.006805 -2.5839539 -23.056793c-1.5238647 -8.050018 -4.3728333 -15.685913 -8.5469055 -22.907745c-4.1740723 -7.2218323 -10.286102 -13.068848 -18.33609 -17.541077c-8.049988 -4.4721985 -18.68393 -6.708313 -31.901825 -6.708313z" fill-rule="evenodd"/><path stroke="#1155cc" stroke-width="2.0" stroke-linejoin="round" stroke-linecap="butt" d="m405.6394 332.47058c5.697937 0 9.872009 1.4244995 12.522217 4.273468c2.6502075 2.8489685 4.3728333 6.4598694 5.1679077 10.832733c0.82818604 4.3728333 1.242279 9.010681 1.242279 13.913574l0 119.06061c0 4.67099 -0.41409302 9.242584 -1.242279 13.714813c-0.79507446 4.472229 -2.5177002 8.1328125 -5.1679077 10.981812c-2.6502075 2.8489685 -6.82428 4.2734375 -12.522217 4.2734375c-5.697937 0 -9.822327 -1.424469 -12.373138 -4.2734375c-2.5508118 -2.848999 -4.190613 -6.5095825 -4.9194336 -10.981812c-0.6956787 -4.472229 -1.0435181 -9.043823 -1.0435181 -13.714813l0 -119.06061c0 -4.902893 0.41409302 -9.540741 1.242279 -13.913574c0.82818604 -4.372864 2.5508423 -7.9837646 5.1679077 -10.832733c2.6502075 -2.8489685 6.6254883 -4.273468 11.925903 -4.273468zm0 -38.46112c-18.51828 0 -33.177216 3.213379 -43.976807 9.640106c-10.766449 6.3936462 -18.501709 15.603119 -23.205841 27.628418c-4.67099 11.992218 -7.0064697 26.535217 -7.0064697 43.62906l0 91.879395c0 16.89508 2.3354797 31.45465 7.0064697 43.67874c4.7041016 12.224091 12.439362 21.599213 23.205841 28.125336c10.799591 6.492981 25.458527 9.739502 43.976807 9.739502c18.717072 0 33.525085 -3.246521 44.42404 -9.739502c10.898956 -6.526123 18.68393 -15.901245 23.35492 -28.125336c4.67099 -12.224091 7.0064697 -26.78366 7.0064697 -43.67874l0 -91.879395c0 -17.093842 -2.3354797 -31.63684 -7.0064697 -43.62906c-4.67099 -12.025299 -12.455963 -21.234772 -23.35492 -27.628418c-10.898956 -6.4267273 -25.70697 -9.640106 -44.42404 -9.640106z" fill-rule="evenodd"/><path stroke="#1155cc" stroke-width="2.0" stroke-linejoin="round" stroke-linecap="butt" d="m513.73706 297.33878l0 247.31406l46.70984 0l0 -128.20377l50.68512 128.20377l36.920654 0l0 -247.31406l-45.169434 0l0 119.11029l-50.68512 -119.11029z" fill-rule="evenodd"/><path stroke="#1155cc" stroke-width="2.0" stroke-linejoin="round" stroke-linecap="butt" d="m751.2507 363.27927l13.11853 96.50067l-26.237 0l13.118469 -96.50067zm-31.45459 -65.94049l-46.70984 247.31406l51.57959 0l8.546936 -52.225647l36.374023 0l8.199036 52.225647l50.387024 0l-46.113525 -247.31406zm112.34607 0l44.57306 247.31406l57.69165 0l45.219055 -247.31406l-49.492493 0l-24.696594 167.95691l-26.584839 -167.95691z" fill-rule="evenodd"/></g></svg>