<svg version="1.1" viewBox="0.0 0.0 1152.8923884514436 547.0209973753281" fill="none" stroke="none" stroke-linecap="square" stroke-miterlimit="10" xmlns:xlink="http://www.w3.org/1999/xlink" xmlns="http://www.w3.org/2000/svg"><clipPath id="p.0"><path d="m0 0l1152.8923 0l0 547.021l-1152.8923 0l0 -547.021z" clip-rule="nonzero"/></clipPath><g clip-path="url(#p.0)"><path fill="#000000" fill-opacity="0.0" d="m0 0l1152.8923 0l0 547.021l-1152.8923 0z" fill-rule="evenodd"/><path fill="#1155cc" d="m256.56876 211.29002l22.73703 34.437805l21.40155 -9.694489l-27.083466 -21.735443l-5.351166 -3.0078735z" fill-rule="evenodd"/><path fill="#1155cc" d="m244.53412 332.66327l-24.743301 -28.422058l-8.0252075 15.048828l24.072449 24.072418z" fill-rule="evenodd"/><path fill="#1155cc" d="m643.0947 408.5656l5.6850586 -22.737l-10.699219 -12.037811l1.338623 29.757477z" fill-rule="evenodd"/><path fill="#1155cc" d="m513.69635 386.49634l5.017273 21.398407l6.6866455 -8.025177l-5.017334 -21.398438z" fill-rule="evenodd"/><path fill="#1155cc" d="m909.58606 408.2286l25.07721 -22.066132l-11.036255 -10.031494l-21.732239 27.75116z" fill-rule="evenodd"/><path fill="#1155cc" d="m810.61285 408.2286l18.390564 -21.398438l-9.026794 -9.026764l-19.061401 22.066162z" fill-rule="evenodd"/><path fill="#1155cc" d="m905.2396 178.18767l25.077148 -39.455124l18.724426 32.431503l-28.088196 18.390549z" fill-rule="evenodd"/><path fill="#1155cc" d="m832.34827 139.0664l-18.05664 39.45511l12.705505 10.699219l14.044067 -23.738586z" fill-rule="evenodd"/><path fill="#1155cc" d="m602.9719 138.39868l-1.338562 41.795288l17.055115 3.675583z" fill-rule="evenodd"/><path fill="#1155cc" d="m719.99866 138.39868l-10.02832 41.12442l14.37793 3.3448792z" fill-rule="evenodd"/><path fill="#1155cc" d="m714.3168 408.2286l11.366943 -22.399994l-11.700806 -4.346466z" fill-rule="evenodd"/><path fill="#1155cc" d="m266.07745 175.1735c-19.855774 0 -35.55568 5.1563416 -47.09973 15.469025c-11.544052 10.281906 -17.316086 25.16603 -17.316086 44.65239c0 13.822067 2.9706879 25.412308 8.912018 34.770676c5.972122 9.358368 13.314148 17.731659 22.026047 25.119843l19.855759 17.269897c7.757614 6.6493835 13.899033 13.237183 18.424301 19.763428c4.556061 6.495453 6.834076 14.483917 6.834076 23.965454c0 3.9711304 -0.8157654 7.757599 -2.4473267 11.3593445c-1.600769 3.5709534 -5.048584 5.356415 -10.343475 5.356415c-4.1558533 0 -7.6960144 -1.3237 -10.620529 -3.9711304c-2.9244995 -2.647461 -5.20253 -6.9880066 -6.834076 -13.021698c-1.600769 -6.0644836 -2.493515 -14.022186 -2.6782227 -23.873108l-43.405624 6.5570374c0.5541229 17.02362 3.2939148 30.876465 8.21936 41.558563c4.925461 10.682129 12.205902 18.578247 21.841354 23.688416c9.666214 5.110138 21.687439 7.665222 36.063614 7.665222c12.282867 0 22.918793 -2.5550842 31.907745 -7.665222c8.988953 -5.1101685 15.930786 -12.052002 20.82547 -20.82547c4.9254456 -8.80426 7.3881836 -18.609009 7.3881836 -29.414246c0 -15.884613 -3.447815 -29.214142 -10.343475 -39.988586c-6.89563 -10.774445 -15.361298 -20.425262 -25.396912 -28.952484l-19.024567 -16.71579c-6.618622 -5.8797607 -11.959656 -11.513245 -16.023163 -16.900482c-4.063492 -5.3872223 -6.0952454 -12.329041 -6.0952454 -20.82547c0 -3.9711456 1.0774536 -7.9423065 3.2323303 -11.913452c2.185669 -3.971161 5.6488953 -5.956726 10.389648 -5.956726c4.3405457 0 7.5421143 1.3698883 9.604645 4.10968c2.0933228 2.7397919 3.4786072 6.6185913 4.1558533 11.636398c0.6772461 4.98703 1.1082458 10.897583 1.2929382 17.731659l43.68268 -5.4026184c-0.18469238 -6.8032837 -0.9851074 -13.945206 -2.4011536 -21.42575c-1.4160767 -7.480545 -4.063507 -14.576294 -7.942322 -21.287231c-3.8787842 -6.7109375 -9.558472 -12.144333 -17.039001 -16.300201c-7.4805603 -4.1558533 -17.362244 -6.23378 -29.645111 -6.23378z" fill-rule="evenodd"/><path fill="#1155cc" d="m418.13635 210.91386c5.294861 0 9.173676 1.3237152 11.636383 3.971161c2.462738 2.6474304 4.063507 6.002899 4.8023376 10.066406c0.7695923 4.063507 1.1543884 8.373276 1.1543884 12.929337l0 110.63818c0 4.3405457 -0.38479614 8.588776 -1.1543884 12.744629c-0.73883057 4.1558533 -2.3395996 7.557495 -4.8023376 10.204926c-2.4627075 2.647461 -6.341522 3.971161 -11.636383 3.971161c-5.2948914 0 -9.127502 -1.3237 -11.497894 -3.971161c-2.3703613 -2.6474304 -3.894165 -6.0490723 -4.5714417 -10.204926c-0.64645386 -4.1558533 -0.96969604 -8.404083 -0.96969604 -12.744629l0 -110.63818c0 -4.556061 0.38479614 -8.865829 1.154419 -12.929337c0.7695923 -4.063507 2.3703918 -7.418976 4.802307 -10.066406c2.462738 -2.6474457 6.15683 -3.971161 11.082306 -3.971161zm0 -35.74037c-17.208344 0 -30.830322 2.9860535 -40.865936 8.958176c-10.004852 5.941345 -17.192932 14.499329 -21.5643 25.673965c-4.3405457 11.14386 -6.5108337 24.658096 -6.5108337 40.54271l0 85.37981c0 15.69989 2.170288 29.229523 6.5108337 40.588867c4.371338 11.3593445 11.559418 20.071259 21.5643 26.135742c10.035614 6.033661 23.657593 9.050507 40.865936 9.050507c17.393036 0 31.153534 -3.0168457 41.281525 -9.050507c10.12796 -6.0644836 17.362244 -14.776398 21.70279 -26.135742c4.340576 -11.3593445 6.5108643 -24.888977 6.5108643 -40.588867l0 -85.37981c0 -15.884613 -2.170288 -29.39885 -6.5108643 -40.54271c-4.3405457 -11.174637 -11.574829 -19.73262 -21.70279 -25.673965c-10.127991 -5.972122 -23.888489 -8.958176 -41.281525 -8.958176z" fill-rule="evenodd"/><path fill="#1155cc" d="m518.5873 178.26729l0 229.81895l43.40558 0l0 -119.13458l47.09973 119.13458l34.30896 0l0 -229.81895l-41.974182 0l0 110.68437l-47.09973 -110.68437z" fill-rule="evenodd"/><path fill="#1155cc" d="m739.29944 239.5431l12.190491 89.67418l-24.381042 0l12.190552 -89.67418zm-29.229553 -61.275818l-43.40564 229.81895l47.93091 0l7.942322 -48.53119l33.800964 0l7.6190796 48.53119l46.822693 0l-42.851562 -229.81895zm104.3988 0l41.420044 229.81895l53.610596 0l42.020325 -229.81895l-45.991516 0l-22.949524 156.07558l-24.704285 -156.07558z" fill-rule="evenodd"/><path fill="#1155cc" d="m254.51456 156.05853c-20.595581 0 -36.880478 5.34848 -48.854645 16.045456c-11.974182 10.665039 -17.961273 26.103806 -17.961273 46.316284c0 14.337143 3.0813599 26.359253 9.244064 36.06636c6.1946564 9.707123 13.810226 18.392395 22.84674 26.055908l20.595581 17.913452c8.046646 6.8971252 14.416916 13.730408 19.110794 20.499847c4.7257996 6.737488 7.0887146 15.023651 7.0887146 24.85849c0 4.1191406 -0.8461609 8.046692 -2.5385437 11.782654c-1.6604004 3.70401 -5.236664 5.5560303 -10.728851 5.5560303c-4.3106995 0 -7.982773 -1.3730469 -11.016251 -4.1191406c-3.0334625 -2.7460938 -5.3963776 -7.248413 -7.0887146 -13.5069275c-1.6604004 -6.2904663 -2.5864105 -14.544708 -2.7779999 -24.762695l-45.02292 6.801361c0.57476807 17.65799 3.4166412 32.02704 8.5256195 43.10721c5.1089783 11.080139 12.660675 19.270508 22.655151 24.571106c10.026382 5.3005676 22.495499 7.9508667 37.407333 7.9508667c12.740509 0 23.772736 -2.650299 33.09662 -7.9508667c9.323883 -5.300598 16.524384 -12.501099 21.60144 -21.601501c5.1089783 -9.132324 7.663452 -19.30243 7.663452 -30.510315c0 -16.476532 -3.5762634 -30.302765 -10.728851 -41.4787c-7.152588 -11.175934 -15.933655 -21.186401 -26.3432 -30.031372l-19.733429 -17.338654c-6.865219 -6.098877 -12.405258 -11.942291 -16.620178 -17.530273c-4.214905 -5.587967 -6.322357 -12.788467 -6.322357 -21.601486c0 -4.1191406 1.1175842 -8.238266 3.352768 -12.357407c2.2671204 -4.1191254 5.859375 -6.1786957 10.776764 -6.1786957c4.5022736 0 7.8231354 1.4209442 9.962509 4.2628174c2.1713257 2.8418884 3.6082153 6.8652344 4.3106995 12.070023c0.70248413 5.172867 1.1495361 11.303665 1.3411255 18.39241l45.310272 -5.603943c-0.19155884 -7.0568085 -1.0217896 -14.464859 -2.490631 -22.224152c-1.468811 -7.7592926 -4.214905 -15.119446 -8.23822 -22.080475c-4.0233154 -6.961014 -9.914612 -12.596878 -17.67389 -16.907593c-7.7592773 -4.31073 -18.009155 -6.4660797 -30.749695 -6.4660797z" fill-rule="evenodd"/><path fill="#1155cc" d="m412.23917 193.13072c5.492157 0 9.515472 1.3730469 12.069946 4.1191254c2.5545044 2.7460938 4.2149353 6.2266083 4.981262 10.441528c0.7982788 4.21492 1.1974182 8.685303 1.1974182 13.411133l0 114.760956c0 4.502289 -0.3991394 8.908813 -1.1974182 13.219543c-0.7663269 4.3106995 -2.4267578 7.8391113 -4.981262 10.585205c-2.5544739 2.7460938 -6.5777893 4.11911 -12.069946 4.11911c-5.4921875 0 -9.46759 -1.3730164 -11.9263 -4.11911c-2.4586792 -2.7460938 -4.039276 -6.2745056 -4.7417603 -10.585205c-0.67056274 -4.31073 -1.0058289 -8.717255 -1.0058289 -13.219543l0 -114.760956c0 -4.72583 0.3991089 -9.196213 1.1974182 -13.411133c0.7982788 -4.21492 2.4586792 -7.6954346 4.9812317 -10.441528c2.5545044 -2.7460785 6.3862305 -4.1191254 11.495239 -4.1191254zm0 -37.07219c-17.849518 0 -31.979065 3.0973358 -42.38861 9.291992c-10.3776245 6.162735 -17.833527 15.039627 -22.367767 26.630676c-4.502289 11.559113 -6.7534485 25.576935 -6.7534485 42.053467l0 88.56134c0 16.284943 2.2511597 30.318726 6.7534485 42.10138c4.53421 11.782623 11.990143 20.819153 22.367767 27.10962c10.409546 6.258545 24.539093 9.387787 42.38861 9.387787c18.041077 0 32.3143 -3.129242 42.81964 -9.387787c10.505341 -6.2904663 18.009186 -15.326996 22.511475 -27.10962c4.502289 -11.782654 6.753418 -25.816437 6.753418 -42.10138l0 -88.56134c0 -16.476532 -2.2511292 -30.494354 -6.753418 -42.053467c-4.502289 -11.591049 -12.006134 -20.467941 -22.511475 -26.630676c-10.505341 -6.1946564 -24.778564 -9.291992 -42.81964 -9.291992z" fill-rule="evenodd"/><path fill="#1155cc" d="m516.43286 159.26762l0 238.38283l45.02289 0l0 -123.573975l48.854675 123.573975l35.58728 0l0 -238.38283l-43.538147 0l0 114.80885l-48.854675 -114.80885z" fill-rule="evenodd"/><path fill="#1155cc" d="m745.3687 222.8268l12.644775 93.01576l-25.28949 0l12.644714 -93.01576zm-30.318604 -63.559174l-45.02289 238.38283l49.716797 0l8.23822 -50.33963l35.060364 0l7.902954 50.33963l48.56732 0l-44.44818 -238.38283zm108.2887 0l42.963318 238.38283l55.608093 0l43.58606 -238.38283l-47.70514 0l-23.804688 161.8915l-25.624756 -161.8915z" fill-rule="evenodd"/><path fill="#3c78d8" d="m242.4527 135.51994c-21.367264 0 -38.262314 5.548874 -50.685135 16.646622c-12.422836 11.064621 -18.634247 27.081818 -18.634247 48.051575c0 14.874298 3.1968231 27.346832 9.590424 37.417633c6.426758 10.0707855 14.327667 19.081482 23.702759 27.032104l21.367264 18.584595c8.348145 7.155548 14.957092 14.244873 19.826828 21.267914c4.902878 6.989929 7.3543243 15.586517 7.3543243 25.789825c0 4.273468 -0.87786865 8.348175 -2.6336365 12.224091c-1.7226257 3.842804 -5.432907 5.764221 -11.130859 5.764221c-4.4722137 0 -8.281876 -1.4244995 -11.429001 -4.273468c-3.1471252 -2.848999 -5.598572 -7.519989 -7.3543243 -14.01297c-1.7226105 -6.5261536 -2.683319 -15.08963 -2.8820953 -25.69046l-46.709824 7.056183c0.5962982 18.31955 3.5446472 33.22696 8.845047 44.72226c5.3004 11.49527 13.135056 19.992493 23.503998 25.491669c10.402054 5.499176 23.338364 8.248779 38.808914 8.248779c13.2178955 0 24.663452 -2.7496033 34.3367 -8.248779c9.673218 -5.499176 17.143494 -12.969452 22.410767 -22.410797c5.300415 -9.474487 7.9506226 -20.025635 7.9506226 -31.653442c0 -17.093842 -3.710266 -31.43808 -11.130859 -43.032745c-7.4205627 -11.594635 -16.53067 -21.980164 -27.33023 -31.156494l-20.472809 -17.988297c-7.1224365 -6.327362 -12.870056 -12.389709 -17.24289 -18.187042c-4.3728333 -5.797333 -6.55925 -13.267609 -6.55925 -22.410828c0 -4.2734528 1.1594696 -8.546921 3.4783936 -12.820374c2.352066 -4.273468 6.078903 -6.410202 11.180542 -6.410202c4.67099 0 8.116257 1.4741821 10.3358 4.4225464c2.2526703 2.948349 3.7434082 7.1224365 4.4722137 12.522232c0.72880554 5.3666687 1.1925812 11.727158 1.3913422 19.081497l47.007996 -5.813904c-0.19876099 -7.3211975 -1.0600891 -15.00679 -2.5839539 -23.056808c-1.5238647 -8.050003 -4.3728333 -15.685913 -8.5469055 -22.90773c-4.1740723 -7.221817 -10.286102 -13.068832 -18.33609 -17.541061c-8.049988 -4.472229 -18.68393 -6.7083435 -31.901825 -6.7083435z" fill-rule="evenodd"/><path fill="#3c78d8" d="m406.0869 173.9811c5.697937 0 9.872009 1.4244843 12.522217 4.2734528c2.6502075 2.8489838 4.3728333 6.4598846 5.1679077 10.832733c0.82818604 4.3728333 1.242279 9.010696 1.242279 13.9135895l0 119.06059c0 4.67099 -0.41409302 9.242584 -1.242279 13.714813c-0.79507446 4.472229 -2.5177002 8.1328125 -5.1679077 10.981812c-2.6502075 2.8489685 -6.82428 4.2734375 -12.522217 4.2734375c-5.697937 0 -9.822327 -1.424469 -12.373138 -4.2734375c-2.5508118 -2.848999 -4.190613 -6.5095825 -4.9194336 -10.981812c-0.6956787 -4.472229 -1.0435181 -9.043823 -1.0435181 -13.714813l0 -119.06059c0 -4.902893 0.41409302 -9.540756 1.242279 -13.9135895c0.82818604 -4.3728485 2.5508423 -7.9837494 5.1679077 -10.832733c2.650177 -2.8489685 6.6254883 -4.2734528 11.925903 -4.2734528zm0 -38.46115c-18.51831 0 -33.177246 3.213379 -43.976807 9.640137c-10.766449 6.3936157 -18.501709 15.603104 -23.205841 27.628418c-4.67099 11.9921875 -7.0064697 26.535202 -7.0064697 43.629044l0 91.879395c0 16.89508 2.3354797 31.45465 7.0064697 43.67874c4.7041016 12.224091 12.439362 21.599182 23.205841 28.125336c10.799561 6.492981 25.458496 9.739502 43.976807 9.739502c18.717072 0 33.525085 -3.246521 44.42404 -9.739502c10.898956 -6.5261536 18.68393 -15.901245 23.35492 -28.125336c4.67099 -12.224091 7.0064697 -26.78366 7.0064697 -43.67874l0 -91.879395c0 -17.093842 -2.3354797 -31.636856 -7.0064697 -43.629044c-4.67099 -12.025314 -12.455963 -21.234802 -23.35492 -27.628418c-10.898956 -6.426758 -25.70697 -9.640137 -44.42404 -9.640137z" fill-rule="evenodd"/><path fill="#3c78d8" d="m514.1846 138.84927l0 247.31409l46.709778 0l0 -128.2038l50.68518 128.2038l36.920654 0l0 -247.31409l-45.169434 0l0 119.11029l-50.68512 -119.11029z" fill-rule="evenodd"/><path fill="#3c78d8" d="m751.6982 204.78975l13.11853 96.50069l-26.237 0l13.118469 -96.50069zm-31.45459 -65.940475l-46.70984 247.31409l51.57959 0l8.546936 -52.225677l36.374023 0l8.199036 52.225677l50.387024 0l-46.113525 -247.31409zm112.34607 0l44.57306 247.31409l57.69165 0l45.219055 -247.31409l-49.492554 0l-24.696533 167.95691l-26.5849 -167.95691z" fill-rule="evenodd"/><path stroke="#1155cc" stroke-width="2.0" stroke-linejoin="round" stroke-linecap="butt" d="m242.4527 135.51994c-21.367264 0 -38.262314 5.548874 -50.685135 16.646622c-12.422836 11.064621 -18.634247 27.081818 -18.634247 48.051575c0 14.874298 3.1968231 27.346832 9.590424 37.417633c6.426758 10.0707855 14.327667 19.081482 23.702759 27.032104l21.367264 18.584595c8.348145 7.155548 14.957092 14.244873 19.826828 21.267914c4.902878 6.989929 7.3543243 15.586517 7.3543243 25.789825c0 4.273468 -0.87786865 8.348175 -2.6336365 12.224091c-1.7226257 3.842804 -5.432907 5.764221 -11.130859 5.764221c-4.4722137 0 -8.281876 -1.4244995 -11.429001 -4.273468c-3.1471252 -2.848999 -5.598572 -7.519989 -7.3543243 -14.01297c-1.7226105 -6.5261536 -2.683319 -15.08963 -2.8820953 -25.69046l-46.709824 7.056183c0.5962982 18.31955 3.5446472 33.22696 8.845047 44.72226c5.3004 11.49527 13.135056 19.992493 23.503998 25.491669c10.402054 5.499176 23.338364 8.248779 38.808914 8.248779c13.2178955 0 24.663452 -2.7496033 34.3367 -8.248779c9.673218 -5.499176 17.143494 -12.969452 22.410767 -22.410797c5.300415 -9.474487 7.9506226 -20.025635 7.9506226 -31.653442c0 -17.093842 -3.710266 -31.43808 -11.130859 -43.032745c-7.4205627 -11.594635 -16.53067 -21.980164 -27.33023 -31.156494l-20.472809 -17.988297c-7.1224365 -6.327362 -12.870056 -12.389709 -17.24289 -18.187042c-4.3728333 -5.797333 -6.55925 -13.267609 -6.55925 -22.410828c0 -4.2734528 1.1594696 -8.546921 3.4783936 -12.820374c2.352066 -4.273468 6.078903 -6.410202 11.180542 -6.410202c4.67099 0 8.116257 1.4741821 10.3358 4.4225464c2.2526703 2.948349 3.7434082 7.1224365 4.4722137 12.522232c0.72880554 5.3666687 1.1925812 11.727158 1.3913422 19.081497l47.007996 -5.813904c-0.19876099 -7.3211975 -1.0600891 -15.00679 -2.5839539 -23.056808c-1.5238647 -8.050003 -4.3728333 -15.685913 -8.5469055 -22.90773c-4.1740723 -7.221817 -10.286102 -13.068832 -18.33609 -17.541061c-8.049988 -4.472229 -18.68393 -6.7083435 -31.901825 -6.7083435z" fill-rule="evenodd"/><path stroke="#1155cc" stroke-width="2.0" stroke-linejoin="round" stroke-linecap="butt" d="m406.0869 173.9811c5.697937 0 9.872009 1.4244843 12.522217 4.2734528c2.6502075 2.8489838 4.3728333 6.4598846 5.1679077 10.832733c0.82818604 4.3728333 1.242279 9.010696 1.242279 13.9135895l0 119.06059c0 4.67099 -0.41409302 9.242584 -1.242279 13.714813c-0.79507446 4.472229 -2.5177002 8.1328125 -5.1679077 10.981812c-2.6502075 2.8489685 -6.82428 4.2734375 -12.522217 4.2734375c-5.697937 0 -9.822327 -1.424469 -12.373138 -4.2734375c-2.5508118 -2.848999 -4.190613 -6.5095825 -4.9194336 -10.981812c-0.6956787 -4.472229 -1.0435181 -9.043823 -1.0435181 -13.714813l0 -119.06059c0 -4.902893 0.41409302 -9.540756 1.242279 -13.9135895c0.82818604 -4.3728485 2.5508423 -7.9837494 5.1679077 -10.832733c2.650177 -2.8489685 6.6254883 -4.2734528 11.925903 -4.2734528zm0 -38.46115c-18.51831 0 -33.177246 3.213379 -43.976807 9.640137c-10.766449 6.3936157 -18.501709 15.603104 -23.205841 27.628418c-4.67099 11.9921875 -7.0064697 26.535202 -7.0064697 43.629044l0 91.879395c0 16.89508 2.3354797 31.45465 7.0064697 43.67874c4.7041016 12.224091 12.439362 21.599182 23.205841 28.125336c10.799561 6.492981 25.458496 9.739502 43.976807 9.739502c18.717072 0 33.525085 -3.246521 44.42404 -9.739502c10.898956 -6.5261536 18.68393 -15.901245 23.35492 -28.125336c4.67099 -12.224091 7.0064697 -26.78366 7.0064697 -43.67874l0 -91.879395c0 -17.093842 -2.3354797 -31.636856 -7.0064697 -43.629044c-4.67099 -12.025314 -12.455963 -21.234802 -23.35492 -27.628418c-10.898956 -6.426758 -25.70697 -9.640137 -44.42404 -9.640137z" fill-rule="evenodd"/><path stroke="#1155cc" stroke-width="2.0" stroke-linejoin="round" stroke-linecap="butt" d="m514.1846 138.84927l0 247.31409l46.709778 0l0 -128.2038l50.68518 128.2038l36.920654 0l0 -247.31409l-45.169434 0l0 119.11029l-50.68512 -119.11029z" fill-rule="evenodd"/><path stroke="#1155cc" stroke-width="2.0" stroke-linejoin="round" stroke-linecap="butt" d="m751.6982 204.78975l13.11853 96.50069l-26.237 0l13.118469 -96.50069zm-31.45459 -65.940475l-46.70984 247.31409l51.57959 0l8.546936 -52.225677l36.374023 0l8.199036 52.225677l50.387024 0l-46.113525 -247.31409zm112.34607 0l44.57306 247.31409l57.69165 0l45.219055 -247.31409l-49.492554 0l-24.696533 167.95691l-26.5849 -167.95691z" fill-rule="evenodd"/></g></svg>