<?xml version="1.0" encoding="UTF-8" standalone="no"?><!DOCTYPE svg PUBLIC "-//W3C//DTD SVG 1.1//EN" "http://www.w3.org/Graphics/SVG/1.1/DTD/svg11.dtd"><svg width="100%" height="100%" viewBox="0 0 360 360" version="1.1" xmlns="http://www.w3.org/2000/svg" xmlns:xlink="http://www.w3.org/1999/xlink" xml:space="preserve" xmlns:serif="http://www.serif.com/" style="fill-rule:evenodd;clip-rule:evenodd;stroke-linejoin:round;stroke-miterlimit:2;"><rect id="SparkleLogo" x="0" y="0" width="360" height="360" style="fill:none;"/><g id="SparkleLogo1" serif:id="SparkleLogo"><path d="M219.205,81.915l16.234,43.872c7.233,19.546 22.644,34.958 42.191,42.191l43.872,16.234c7.321,2.709 12.182,9.69 12.182,17.496c-0,7.807 -4.861,14.788 -12.182,17.497l-43.872,16.234c-19.547,7.233 -34.958,22.644 -42.191,42.191l-16.234,43.872c-2.709,7.321 -9.69,12.182 -17.497,12.182c-7.806,-0 -14.787,-4.861 -17.496,-12.182l-16.234,-43.872c-7.233,-19.547 -22.645,-34.958 -42.191,-42.191l-43.872,-16.234c-7.321,-2.709 -12.182,-9.69 -12.182,-17.497c0,-7.806 4.861,-14.787 12.182,-17.496l43.872,-16.234c19.546,-7.233 34.958,-22.645 42.191,-42.191l16.234,-43.872c2.709,-7.321 9.69,-12.182 17.496,-12.182c7.807,0 14.788,4.861 17.497,12.182Z" style="fill:#0ef;fill-opacity:0.84;"/><path d="M175.788,38.498l16.234,43.872c7.233,19.547 22.645,34.958 42.191,42.191l43.872,16.234c7.321,2.709 12.182,9.69 12.182,17.497c-0,7.806 -4.861,14.787 -12.182,17.496l-43.872,16.234c-19.546,7.233 -34.958,22.645 -42.191,42.191l-16.234,43.872c-2.709,7.321 -9.69,12.182 -17.496,12.182c-7.807,-0 -14.788,-4.861 -17.497,-12.182l-16.234,-43.872c-7.233,-19.546 -22.644,-34.958 -42.191,-42.191l-43.872,-16.234c-7.321,-2.709 -12.182,-9.69 -12.182,-17.496c0,-7.807 4.861,-14.788 12.182,-17.497l43.872,-16.234c19.547,-7.233 34.958,-22.644 42.191,-42.191l16.234,-43.872c2.709,-7.321 9.69,-12.182 17.497,-12.182c7.806,0 14.787,4.861 17.496,12.182Z" style="fill:#ff004a;fill-opacity:0.84;"/><path d="M197.497,60.206l16.234,43.872c7.233,19.547 22.644,34.958 42.191,42.191l43.872,16.234c7.321,2.71 12.181,9.691 12.181,17.497c0,7.806 -4.86,14.787 -12.181,17.497l-43.872,16.234c-19.547,7.233 -34.958,22.644 -42.191,42.191l-16.234,43.872c-2.71,7.321 -9.691,12.181 -17.497,12.181c-7.806,0 -14.787,-4.86 -17.497,-12.181l-16.234,-43.872c-7.233,-19.547 -22.644,-34.958 -42.191,-42.191l-43.872,-16.234c-7.321,-2.71 -12.181,-9.691 -12.181,-17.497c-0,-7.806 4.86,-14.787 12.181,-17.497l43.872,-16.234c19.547,-7.233 34.958,-22.644 42.191,-42.191l16.234,-43.872c2.71,-7.321 9.691,-12.181 17.497,-12.181c7.806,-0 14.787,4.86 17.497,12.181Z"/></g></svg>