<?xml version="1.0" encoding="UTF-8" standalone="no"?>
<!DOCTYPE svg PUBLIC "-//W3C//DTD SVG 1.1//EN" "http://www.w3.org/Graphics/SVG/1.1/DTD/svg11.dtd">
<svg width="100%" height="100%" viewBox="0 0 3300 3300" version="1.1" xmlns="http://www.w3.org/2000/svg" xmlns:xlink="http://www.w3.org/1999/xlink" xml:space="preserve" xmlns:serif="http://www.serif.com/" style="fill-rule:evenodd;clip-rule:evenodd;stroke-linejoin:round;stroke-miterlimit:2;">
    <g transform="matrix(0.655938,0,0,0.655938,471.837,410.34)">
        <circle cx="1804.39" cy="1072.18" r="533.335" style="fill:rgb(0,6,115);"/>
    </g>
    <g transform="matrix(0.655938,0,0,0.655938,723.174,1039.79)">
        <path d="M405.024,1419.48C405.024,858.624 860.366,403.281 1421.22,403.281C1982.08,403.281 2437.42,858.624 2437.42,1419.48L2437.42,2550L405.024,2550L405.024,1419.48Z" style="fill:rgb(0,6,115);"/>
    </g>
    <g transform="matrix(0.846805,0,0,0.846805,435.452,961.743)">
        <circle cx="710.225" cy="1350.27" r="152.625" style="fill:white;"/>
    </g>
    <g transform="matrix(0.846805,0,0,0.846805,1330.6,885.47)">
        <circle cx="710.225" cy="1350.27" r="152.625" style="fill:white;"/>
    </g>
    <g transform="matrix(1.96185,0,0,1.96185,746.292,-206.646)">
        <circle cx="710.225" cy="1350.27" r="152.625" style="fill:white;"/>
    </g>
    <g transform="matrix(1.96185,0,0,1.96185,944.844,-543.024)">
        <circle cx="710.225" cy="1350.27" r="152.625" style="fill:white;"/>
    </g>
    <g transform="matrix(1.4151,0,0,1.4151,1549.14,401.889)">
        <circle cx="710.225" cy="1350.27" r="152.625" style="fill:white;"/>
    </g>
    <g transform="matrix(1.50299,0,0,1.50299,1812.95,269.803)">
        <circle cx="710.225" cy="1350.27" r="152.625" style="fill:white;"/>
    </g>
    <g transform="matrix(1.81074,0,0,1.81074,349.72,-192.705)">
        <circle cx="710.225" cy="1350.27" r="152.625" style="fill:white;"/>
    </g>
    <g transform="matrix(1.81074,0,0,1.81074,-573.549,157.383)">
        <circle cx="710.225" cy="1350.27" r="152.625" style="fill:white;"/>
    </g>
    <g transform="matrix(1.47397,0,0,1.47397,183.904,313.415)">
        <circle cx="710.225" cy="1350.27" r="152.625" style="fill:white;"/>
    </g>
    <g transform="matrix(1.47397,0,0,1.47397,1617.19,526.585)">
        <circle cx="710.225" cy="1350.27" r="152.625" style="fill:white;"/>
    </g>
    <g transform="matrix(1.47397,0,0,1.47397,584.059,423.743)">
        <circle cx="710.225" cy="1350.27" r="152.625" style="fill:white;"/>
    </g>
    <g transform="matrix(0.993877,0,0,0.993877,-338.575,791.068)">
        <circle cx="710.225" cy="1350.27" r="152.625" style="fill:white;"/>
    </g>
    <g transform="matrix(1.36168,0,0,1.36127,-417.384,493.719)">
        <circle cx="710.225" cy="1350.27" r="152.625" style="fill:white;"/>
    </g>
    <g transform="matrix(1.36168,0,0,1.36127,-240.282,170.282)">
        <circle cx="710.225" cy="1350.27" r="152.625" style="fill:white;"/>
    </g>
    <g transform="matrix(1.07351,0,0,1.07318,129.759,957.001)">
        <circle cx="710.225" cy="1350.27" r="152.625" style="fill:white;"/>
    </g>
    <g transform="matrix(1.81074,0,0,1.81074,924.596,116.141)">
        <circle cx="710.225" cy="1350.27" r="152.625" style="fill:white;"/>
    </g>
    <g transform="matrix(1.47397,0,0,1.47397,758.781,622.261)">
        <circle cx="710.225" cy="1350.27" r="152.625" style="fill:white;"/>
    </g>
    <g transform="matrix(1.36168,0,0,1.36127,146.361,783.683)">
        <circle cx="710.225" cy="1350.27" r="152.625" style="fill:white;"/>
    </g>
    <g transform="matrix(1.07351,0,0,1.07318,678.115,1263.34)">
        <circle cx="710.225" cy="1350.27" r="152.625" style="fill:white;"/>
    </g>
    <path d="M832.046,2028.89L549.102,2234.4L1074.48,2646.57L1492.17,2711.47L2361.93,2370.08L2167.29,2028.89L1881.57,2105.16L1231.08,2234.4L832.046,2028.89" style="fill:white;"/>
</svg>
