<?xml version="1.0" encoding="UTF-8" standalone="no"?>
<!DOCTYPE svg PUBLIC "-//W3C//DTD SVG 1.1//EN" "http://www.w3.org/Graphics/SVG/1.1/DTD/svg11.dtd">
<svg width="100%" height="100%" viewBox="0 0 1200 1200" version="1.1" xmlns="http://www.w3.org/2000/svg" xmlns:xlink="http://www.w3.org/1999/xlink" xml:space="preserve" xmlns:serif="http://www.serif.com/" style="fill-rule:evenodd;clip-rule:evenodd;stroke-linejoin:round;stroke-miterlimit:2;">
    <g transform="matrix(1,0,0,1,-118.116,245.097)">
        <path d="M227.77,325.663L486.795,66.639C502.664,50.77 528.431,50.77 544.3,66.639C560.169,82.508 560.169,108.275 544.3,124.144L313.542,354.903L544.3,585.662C560.169,601.531 560.169,627.298 544.3,643.167C528.431,659.036 502.664,659.036 486.795,643.167L227.77,384.142C227.606,383.983 227.442,383.822 227.279,383.66C219.344,375.724 215.377,365.313 215.378,354.903C215.377,344.493 219.344,334.082 227.279,326.146C227.442,325.984 227.606,325.823 227.77,325.663Z" style="fill:white;"/>
    </g>
    <g transform="matrix(-1,0,0,-1,1318.12,954.903)">
        <path d="M227.77,325.663L486.795,66.639C502.664,50.77 528.431,50.77 544.3,66.639C560.169,82.508 560.169,108.275 544.3,124.144L313.542,354.903L544.3,585.662C560.169,601.531 560.169,627.298 544.3,643.167C528.431,659.036 502.664,659.036 486.795,643.167L227.77,384.142C227.606,383.983 227.442,383.822 227.279,383.66C219.344,375.724 215.377,365.313 215.378,354.903C215.377,344.493 219.344,334.082 227.279,326.146C227.442,325.984 227.606,325.823 227.77,325.663Z" style="fill:white;"/>
    </g>
    <g transform="matrix(0.640102,-2.38889,1.15046,0.308265,-211.679,974.623)">
        <path d="M385.79,576.857C385.79,557.004 378.028,540.886 368.467,540.886L94.047,540.886C84.486,540.886 76.724,557.004 76.724,576.857C76.724,596.71 84.486,612.828 94.047,612.828L368.467,612.828C378.028,612.828 385.79,596.71 385.79,576.857Z" style="fill:white;"/>
    </g>
</svg>
