<?xml version="1.0" encoding="UTF-8" standalone="no"?>
<!DOCTYPE svg PUBLIC "-//W3C//DTD SVG 1.1//EN" "http://www.w3.org/Graphics/SVG/1.1/DTD/svg11.dtd">
<svg width="100%" height="100%" viewBox="0 0 802 79" version="1.1" xmlns="http://www.w3.org/2000/svg" xmlns:xlink="http://www.w3.org/1999/xlink" xml:space="preserve" xmlns:serif="http://www.serif.com/" style="fill-rule:evenodd;clip-rule:evenodd;stroke-linejoin:round;stroke-miterlimit:2;">
    <g transform="matrix(1,0,0,1,0,-636)">
        <g id="Droplets" transform="matrix(1,0,0,0.473478,1170.82,563.843)">
            <rect x="-1170.82" y="153.226" width="801.132" height="163.996" style="fill:none;"/>
            <clipPath id="_clip1">
                <rect x="-1170.82" y="153.226" width="801.132" height="163.996"/>
            </clipPath>
            <g clip-path="url(#_clip1)">
                <g transform="matrix(1.03354,0,0,1.6053,25.8363,-121.126)">
                    <path d="M-1136.5,235.224C-1136.5,225.461 -1142.32,217.547 -1149.5,217.547L-1157.82,217.547C-1157.82,217.547 -1157.82,170.903 -1157.82,170.903C-1157.82,170.903 -382.687,170.903 -382.687,170.903C-382.687,170.903 -382.687,217.547 -382.687,217.547C-382.687,217.547 -426.943,217.547 -426.943,217.547C-434.123,217.547 -439.943,225.461 -439.943,235.224C-439.943,239.295 -442.373,242.6 -445.367,242.6C-448.36,242.6 -450.791,239.295 -450.791,235.224C-450.791,225.461 -456.611,217.547 -463.791,217.547L-473.99,217.547C-478.726,217.547 -483.087,221.048 -485.374,226.687C-487.661,232.326 -487.512,239.209 -484.986,244.656C-483.796,247.22 -483.115,250.257 -483.115,253.509C-483.115,262.749 -488.631,270.25 -495.426,270.25C-502.221,270.25 -507.738,262.749 -507.738,253.509C-507.738,250.257 -507.057,247.22 -505.867,244.656C-503.341,239.209 -503.192,232.326 -505.479,226.687C-507.766,221.048 -512.127,217.547 -516.863,217.547L-521.404,217.547C-528.584,217.547 -534.404,225.461 -534.404,235.224C-534.404,239.295 -536.835,242.6 -539.828,242.6C-542.822,242.6 -545.252,239.295 -545.252,235.224C-545.252,225.461 -551.072,217.547 -558.252,217.547L-662.604,217.547C-669.784,217.547 -675.604,225.461 -675.604,235.224C-675.604,239.295 -678.035,242.6 -681.028,242.6C-684.022,242.6 -686.452,239.295 -686.452,235.224C-686.452,225.461 -692.272,217.547 -699.452,217.547L-738.739,217.547C-745.919,217.547 -751.739,225.461 -751.739,235.224C-751.739,239.295 -754.169,242.6 -757.163,242.6C-760.157,242.6 -762.587,239.295 -762.587,235.224C-762.587,225.461 -768.407,217.547 -775.587,217.547L-776.79,217.547C-783.97,217.547 -789.79,225.461 -789.79,235.224C-789.79,244.799 -795.507,252.573 -802.549,252.573C-809.59,252.573 -815.307,244.799 -815.307,235.224C-815.307,225.461 -821.128,217.547 -828.307,217.547C-835.487,217.547 -841.307,225.461 -841.307,235.224C-841.307,239.295 -843.738,242.6 -846.731,242.6C-849.725,242.6 -852.155,239.295 -852.155,235.224C-852.155,225.461 -857.976,217.547 -865.155,217.547L-921.043,217.547C-924.876,217.547 -928.514,219.848 -930.985,223.834C-933.455,227.821 -934.505,233.087 -933.854,238.224C-933.772,238.87 -933.733,239.534 -933.733,240.211C-933.733,247.034 -937.807,252.573 -942.825,252.573C-945.932,252.573 -948.674,250.442 -950.314,247.205C-954.093,239.745 -961.406,237.376 -967.252,241.717C-968.016,242.284 -968.893,242.6 -969.824,242.6C-972.818,242.6 -975.248,239.295 -975.248,235.224C-975.248,225.461 -981.068,217.547 -988.248,217.547L-1020.65,217.547C-1027.83,217.547 -1033.65,225.461 -1033.65,235.224C-1033.65,239.295 -1036.08,242.6 -1039.07,242.6C-1039.9,242.6 -1040.68,242.354 -1041.37,241.879C-1045.07,239.33 -1049.43,239.33 -1053.13,241.879C-1053.82,242.354 -1054.6,242.6 -1055.43,242.6C-1058.06,242.6 -1060.27,240.047 -1060.74,236.655C-1061.73,229.64 -1065.72,224.12 -1070.86,222.663C-1076,221.206 -1081.29,224.1 -1084.25,229.997C-1086.46,234.411 -1090.19,237.318 -1094.42,237.318C-1098.14,237.318 -1101.48,235.064 -1103.73,231.507C-1106.79,226.675 -1111.53,224.46 -1116.13,225.711C-1120.73,226.963 -1124.48,231.486 -1125.93,237.547C-1126.64,240.484 -1128.68,242.6 -1131.07,242.6C-1134.07,242.6 -1136.5,239.295 -1136.5,235.224Z" style="fill:rgb(34,204,226);"/>
                </g>
            </g>
        </g>
    </g>
</svg>
