<?xml version="1.0" encoding="UTF-8" standalone="no"?>
<!DOCTYPE svg PUBLIC "-//W3C//DTD SVG 1.1//EN" "http://www.w3.org/Graphics/SVG/1.1/DTD/svg11.dtd">
<svg width="100%" height="100%" viewBox="0 0 802 121" version="1.1" xmlns="http://www.w3.org/2000/svg" xmlns:xlink="http://www.w3.org/1999/xlink" xml:space="preserve" xmlns:serif="http://www.serif.com/" style="fill-rule:evenodd;clip-rule:evenodd;stroke-linejoin:round;stroke-miterlimit:2;">
    <g transform="matrix(1,0,0,1,0,-382)">
        <g id="Wave" transform="matrix(1,0,0,0.735408,1170.82,269.641)">
            <rect x="-1170.82" y="153.226" width="801.132" height="163.996" style="fill:none;"/>
            <clipPath id="_clip1">
                <rect x="-1170.82" y="153.226" width="801.132" height="163.996"/>
            </clipPath>
            <g clip-path="url(#_clip1)">
                <g transform="matrix(1.48194,0.041494,-0.030515,2.01512,-1327.56,-746.729)">
                    <path d="M546.598,454.349C558.072,459.133 571.05,458.745 582.217,453.282C596.099,446.457 611.711,442.626 628.211,442.626C641.909,442.626 654.995,445.266 666.989,450.066C676.197,453.712 686.379,454.083 695.828,451.117C705.7,448.047 716.193,446.382 727.072,446.382C784.773,446.382 831.62,493.228 831.62,550.93C831.62,608.632 784.773,655.478 727.072,655.478C707.77,655.478 689.684,650.237 674.155,641.097C660.285,647.902 644.691,651.723 628.211,651.723C606.665,651.723 586.633,645.191 569.984,633.998C552.378,647.472 530.379,655.478 506.525,655.478C487.224,655.478 469.137,650.237 453.609,641.097C439.738,647.902 424.144,651.723 407.665,651.723C396.055,651.723 384.885,649.826 374.442,646.324C358.137,656.839 338.722,662.944 317.892,662.944C303.293,662.944 289.389,659.946 276.761,654.53C262.145,662.299 245.48,666.7 227.794,666.7C208.493,666.7 190.406,661.458 174.877,652.319C161.007,659.123 145.413,662.944 128.933,662.944C117.324,662.944 106.154,661.048 95.71,657.546C79.406,668.061 59.991,674.166 39.16,674.166C-18.541,674.166 -65.388,627.319 -65.388,569.618C-65.388,511.916 -18.541,465.07 39.16,465.07C45.772,465.07 52.24,465.685 58.514,466.861C67.43,468.555 76.654,467.398 84.876,463.553C98.272,457.331 113.199,453.848 128.933,453.848C142.631,453.848 155.717,456.488 167.711,461.287C176.92,464.934 187.101,465.305 196.55,462.338C206.422,459.269 216.915,457.603 227.794,457.603C237.394,457.603 246.694,458.9 255.529,461.329C264.186,463.716 273.371,463.347 281.809,460.274C293.055,456.11 305.211,453.848 317.892,453.848C324.503,453.848 330.972,454.463 337.245,455.639C346.162,457.334 355.386,456.176 363.607,452.332C377.003,446.11 391.93,442.626 407.665,442.626C421.362,442.626 434.448,445.266 446.443,450.066C455.651,453.712 465.832,454.083 475.282,451.117C485.154,448.047 495.646,446.382 506.525,446.382C520.718,446.382 534.253,449.216 546.598,454.349Z" style="fill:rgb(34,204,226);"/>
                </g>
            </g>
        </g>
    </g>
</svg>
